<?xml version="1.0" encoding="UTF-8"?>
<svg id="_Слой_2" data-name="Слой 2" xmlns="http://www.w3.org/2000/svg" viewBox="0 0 25.66 39.72">
  <defs>
    <style>
      .cls-1 {
        fill: none;
        stroke: #54592e;
        stroke-miterlimit: 10;
      }
    </style>
  </defs>
  <g id="_Слой_2-2" data-name=" Слой 2">
    <g id="_Слой_1-2" data-name=" Слой 1-2">
      <g>
        <path class="cls-1" d="M13.33,.27c-9.72,15.49,3.37,22.79,0,30.39"/>
        <path class="cls-1" d="M9.96,10.39c-3.93,2.37-6.5,5.1-6.74,8.44"/>
        <path class="cls-1" d="M12.21,20.52c3.74,1.42,6.89,3.5,8.99,6.75"/>
        <path class="cls-1" d="M3.62,18.59c-3.13,.17-3.79,3.74-2.49,7.8"/>
        <path class="cls-1" d="M3.76,18.14c.92,.36,1.34,.79,1.55,1.08,1.29,1.8-.97,3.84-2.09,4.68s-1.62,2.37-2.18,2.78"/>
        <path class="cls-1" d="M14.05,31.2c2.86,.96,1.86,4.48-1.21,7.97"/>
        <path class="cls-1" d="M14.12,30.74c-1.03,.1-1.62,.4-1.95,.61-2.03,1.35-.84,3.85-.17,4.93s.44,2.65,.78,3.17"/>
        <path class="cls-1" d="M20.86,27.15c3.12-.24,4.59,3.19,4.25,7.36"/>
        <path class="cls-1" d="M20.62,26.73c-.83,.48-1.14,.95-1.28,1.26-.86,1.94,1.84,3.65,3.14,4.34s2.14,2.12,2.79,2.45"/>
      </g>
    </g>
  </g>
</svg>