<?xml version="1.0" encoding="utf-8"?>
<!-- Generator: Adobe Illustrator 26.4.1, SVG Export Plug-In . SVG Version: 6.00 Build 0)  -->
<svg version="1.1" id="_Слой_2" xmlns="http://www.w3.org/2000/svg" xmlns:xlink="http://www.w3.org/1999/xlink" x="0px"
	 y="0px" viewBox="0 0 69.5 27" style="enable-background:new 0 0 69.5 27;" xml:space="preserve">
<style type="text/css">
	.st0{fill:#54592E;stroke:#54592E;stroke-width:0.5;stroke-miterlimit:10;}
	.st1{fill:#FFFCF5;stroke:#54592E;stroke-width:0.5;stroke-miterlimit:10;}
	.st2{fill:none;stroke:#54592E;stroke-miterlimit:10;}
</style>
<g>
	<path class="st0" d="M63,4.2c1.1,0,2,1.1,2,2.6v19.7c0,1.4-1,2.6-2,2.6H6.7c-1.1,0-2-1.1-2-2.6v-4.6c0-9.8,6.3-17.7,14-17.7H63
		 M63,3H18.6C10.4,3,3.7,11.5,3.7,22v4.6c0,2.1,1.2,3.7,3,3.7H63c1.6,0,3-1.6,3-3.7V6.7C65.9,4.7,64.6,3,63,3L63,3z"/>
	<g>
		<path class="st1" d="M16.1,33.9c-2,0-3.6-1.8-3.6-4.1s1.6-4.1,3.6-4.1s3.6,1.8,3.6,4.1S18.1,33.9,16.1,33.9z"/>
		<path class="st0" d="M16.1,26.2c1.7,0,3.2,1.5,3.2,3.5s-1.4,3.5-3.2,3.5S13,31.7,13,29.7S14.3,26.2,16.1,26.2 M16.1,25
			c-2.3,0-4.1,2.1-4.1,4.8s1.8,4.8,4.1,4.8s4.1-2.1,4.1-4.8S18.3,25,16.1,25L16.1,25z"/>
	</g>
	<g>
		<path class="st1" d="M57.2,33.9c-2,0-3.6-1.8-3.6-4.1s1.6-4.1,3.6-4.1c2,0,3.6,1.8,3.6,4.1S59.2,33.9,57.2,33.9z"/>
		<path class="st0" d="M57.2,26.2c1.7,0,3.2,1.5,3.2,3.5s-1.4,3.5-3.2,3.5c-1.7,0-3.2-1.5-3.2-3.5S55.5,26.2,57.2,26.2 M57.2,25
			c-2.3,0-4.1,2.1-4.1,4.8s1.8,4.8,4.1,4.8c2.3,0,4.1-2.1,4.1-4.8S59.5,25,57.2,25L57.2,25z"/>
	</g>
	<path class="st0" d="M60.1,9.4c0.2,0,0.4,0.2,0.4,0.5v4.2c0,0.3-0.2,0.5-0.4,0.5h-4.8c-0.2,0-0.4-0.2-0.4-0.5V9.9
		c0-0.3,0.2-0.5,0.4-0.5H60.1 M60.1,8.3h-4.8c-0.8,0-1.2,0.8-1.2,1.6v4.2c0,1,0.6,1.6,1.2,1.6h4.8c0.8,0,1.2-0.8,1.2-1.6V9.9
		C61.3,9,60.9,8.3,60.1,8.3L60.1,8.3z"/>
	<path class="st0" d="M50,9.4c0.2,0,0.4,0.2,0.4,0.5v4.2c0,0.3-0.2,0.5-0.4,0.5h-4.8c-0.2,0-0.4-0.2-0.4-0.5V9.9
		c0-0.3,0.2-0.5,0.4-0.5H50 M50,8.3h-4.8C44.5,8.3,44,9,44,9.9v4.2c0,1,0.6,1.6,1.2,1.6H50c0.8,0,1.2-0.8,1.2-1.6V9.9
		C51.3,9,50.7,8.3,50,8.3L50,8.3z"/>
	<path class="st0" d="M40,9.4c0.2,0,0.4,0.2,0.4,0.5v4.2c0,0.3-0.2,0.5-0.4,0.5h-4.8c-0.2,0-0.4-0.2-0.4-0.5V9.9
		c0-0.3,0.2-0.5,0.4-0.5H40 M40,8.3h-4.8c-0.8,0-1.2,0.8-1.2,1.6v4.2c0,1,0.6,1.6,1.2,1.6H40c0.8,0,1.2-0.8,1.2-1.6V9.9
		C41.2,9,40.7,8.3,40,8.3L40,8.3z"/>
	<path class="st0" d="M29.9,9.4c0.2,0,0.4,0.2,0.4,0.5v4.2c0,0.3-0.2,0.5-0.4,0.5h-4.7c-0.2,0-0.4-0.2-0.4-0.5V9.9
		c0-0.3,0.2-0.5,0.4-0.5H29.9 M29.9,8.3h-4.7C24.5,8.3,24,9,24,9.9v4.2c0,1,0.6,1.6,1.2,1.6h4.7c0.8,0,1.2-0.8,1.2-1.6V9.9
		C31.2,9,30.6,8.3,29.9,8.3L29.9,8.3z"/>
	<path class="st0" d="M21.1,9.4v9.1c0,0.1,0,0.1-0.1,0.1H9.2v-0.3c0-5,3.1-9,7.1-9L21.1,9.4 M22.1,8.3h-5.7c-4.4,0-7.9,4.6-7.9,10.2
		v1.1c0,0.2,0.1,0.4,0.3,0.4h12.4c0.6,0,1.1-0.6,1.1-1.2L22.1,8.3L22.1,8.3L22.1,8.3z"/>
	<path class="st0" d="M8.5,9.1"/>
	<path class="st2" d="M7.7,9.7H2.5C2.2,9.7,2,10,2,10.3v4.5"/>
</g>
</svg>
