<?xml version="1.0" encoding="utf-8"?>
<!-- Generator: Adobe Illustrator 26.4.1, SVG Export Plug-In . SVG Version: 6.00 Build 0)  -->
<svg version="1.1" id="_Слой_2" xmlns="http://www.w3.org/2000/svg" xmlns:xlink="http://www.w3.org/1999/xlink" x="0px"
	 y="0px" viewBox="0 0 90.6 33.5" style="enable-background:new 0 0 90.6 33.5;" xml:space="preserve">
<style type="text/css">
	.st0{fill:#54592E;stroke:#54592E;stroke-width:0.5;stroke-miterlimit:10;}
	.st1{fill:#FFFCF5;stroke:#54592E;stroke-width:0.5;stroke-miterlimit:10;}
	.st2{fill:none;stroke:#54592E;stroke-miterlimit:10;}
</style>
<g>
	<path class="st0" d="M10.7-0.3H68c9.9,0,18.1,10.3,18.1,22.9v6c0,1.9-1.3,3.3-2.5,3.3H10.7c-1.4,0-2.5-1.5-2.5-3.3V3.1
		C8.1,1.2,9.3-0.3,10.7-0.3 M10.7-1.8c-2.1,0-3.9,2.2-3.9,4.9v25.6c0,2.7,1.8,4.9,3.9,4.9h72.7c2.2,0,3.9-2.1,3.9-4.9v-6
		C87.2,9.2,78.5-1.8,68-1.8C68-1.8,10.7-1.8,10.7-1.8z"/>
	<g>
		<path class="st1" d="M66.5,32.9c0-3,2.1-5.3,4.8-5.3c2.7,0,4.8,2.3,4.8,5.3c0,3-2.1,5.3-4.8,5.3C68.6,38.2,66.5,35.9,66.5,32.9z"
			/>
		<path class="st0" d="M71.2,28.1c2.3,0,4.1,2,4.1,4.6s-1.9,4.6-4.1,4.6c-2.2,0-4.1-2-4.1-4.6S68.9,28.1,71.2,28.1 M71.2,26.7
			c-2.8,0-5.3,2.7-5.3,6.2c0,3.5,2.3,6.2,5.3,6.2s5.3-2.7,5.3-6.2C76.5,29.4,74.2,26.7,71.2,26.7L71.2,26.7z"/>
	</g>
	<g>
		<path class="st1" d="M13.4,32.9c0-3,2.1-5.3,4.8-5.3s4.8,2.3,4.8,5.3c0,3-2.1,5.3-4.8,5.3S13.4,35.9,13.4,32.9z"/>
		<path class="st0" d="M18.2,28.1c2.1,0,4.1,2.1,4.1,4.6c0,2.5-1.9,4.6-4.1,4.6s-4.1-2-4.1-4.6S15.9,28.1,18.2,28.1 M18.2,26.7
			c-3,0-5.3,2.7-5.3,6.2c0,3.5,2.3,6.2,5.3,6.2s5.3-2.7,5.3-6.2C23.5,29.4,21.1,26.7,18.2,26.7L18.2,26.7z"/>
	</g>
	<path class="st0" d="M14.4,6.5h6.2c0.2,0,0.6,0.2,0.6,0.7v5.5c0,0.3-0.2,0.7-0.6,0.7h-6.2c-0.2,0-0.6-0.2-0.6-0.7V7.1
		C14,6.7,14.2,6.5,14.4,6.5 M14.4,4.9c-1,0-1.7,1-1.7,2.1v5.5c0,1.1,0.7,2.1,1.7,2.1h6.2c0.9,0,1.7-0.9,1.7-2.1V7
		c0-1.1-0.7-2.1-1.7-2.1C20.6,4.9,14.4,4.9,14.4,4.9z"/>
	<path class="st0" d="M27.3,6.5h6.2c0.2,0,0.6,0.2,0.6,0.7v5.5c0,0.3-0.2,0.7-0.6,0.7h-6.2c-0.2,0-0.6-0.2-0.6-0.7V7.1
		C26.8,6.7,27.1,6.5,27.3,6.5 M27.3,4.9c-0.9,0-1.7,1-1.7,2.1v5.5c0,1.1,0.7,2.1,1.7,2.1h6.2c0.9,0,1.7-0.9,1.7-2.1V7
		c0-1.1-0.7-2.1-1.7-2.1C33.5,4.9,27.3,4.9,27.3,4.9z"/>
	<path class="st0" d="M40.4,6.5h6.2c0.2,0,0.6,0.2,0.6,0.7v5.5c0,0.3-0.2,0.7-0.6,0.7h-6.2c-0.2,0-0.6-0.2-0.6-0.7V7.1
		C39.8,6.7,40.1,6.5,40.4,6.5 M40.4,4.9c-0.9,0-1.7,1-1.7,2.1v5.5c0,1.1,0.7,2.1,1.7,2.1h6.2c0.9,0,1.7-0.9,1.7-2.1V7
		c0-1.1-0.7-2.1-1.7-2.1C46.6,4.9,40.4,4.9,40.4,4.9z"/>
	<path class="st0" d="M53.4,6.5h6.1c0.2,0,0.6,0.2,0.6,0.7v5.5c0,0.3-0.2,0.7-0.6,0.7h-6.1c-0.2,0-0.6-0.2-0.6-0.7V7.1
		C52.9,6.7,53.1,6.5,53.4,6.5 M53.4,4.9c-0.9,0-1.7,1-1.7,2.1v5.5c0,1.1,0.7,2.1,1.7,2.1h6.1c0.9,0,1.7-0.9,1.7-2.1V7
		c0-1.1-0.7-2.1-1.7-2.1C59.5,4.9,53.4,4.9,53.4,4.9z"/>
	<path class="st0" d="M64.7,6.5l6.2-0.1c5.2,0,9.2,5.2,9.2,11.6v0.4H64.9c-0.1,0-0.1,0-0.1-0.1L64.7,6.5 M63.6,4.9L63.6,4.9
		l-0.1,13.5c0,0.9,0.7,1.7,1.4,1.7H81c0.2,0,0.3-0.2,0.3-0.6v-1.4c0-7.2-4.6-13.1-10.3-13.1C71,4.9,63.6,4.9,63.6,4.9z"/>
	<path class="st2" d="M89.4,13.4V7.6c0-0.3-0.2-0.8-0.8-0.8H82"/>
</g>
</svg>
