<?xml version="1.0" encoding="UTF-8"?>
<svg id="_Слой_2" data-name="Слой 2" xmlns="http://www.w3.org/2000/svg" viewBox="0 0 50.8 44.9">
  <defs>
    <style>
      .cls-1 {
        fill: none;
        stroke: #54592e;
        stroke-miterlimit: 10;
      }
    </style>
  </defs>
  <g id="_Слой_1-2" data-name="Слой 1">
    <g>
      <line class="cls-1" x1="6.03" y1="35.64" x2="6.03" y2="25.5"/>
      <line class="cls-1" x1="44.76" y1="36.56" x2="44.76" y2="26.42"/>
      <line class="cls-1" x1="9.72" y1="11.2" x2="9.72" y2="19.5"/>
      <line class="cls-1" x1="41.07" y1="11.66" x2="41.07" y2="19.04"/>
      <path class="cls-1" d="M25.61,6.18c-3.73-2.43-3.81-4.68-2.67-5.39,.8-.5,2.47-.59,2.67,1.54"/>
      <path class="cls-1" d="M25.64,6.21c3.73-2.43,3.81-4.68,2.67-5.39-.8-.5-2.47-.59-2.67,1.54"/>
      <line class="cls-1" x1=".5" y1="44.4" x2="50.76" y2="44.4"/>
      <line class="cls-1" x1=".5" y1="39.79" x2=".5" y2="44.86"/>
      <line class="cls-1" x1="50.3" y1="39.33" x2="50.3" y2="44.86"/>
      <path class="cls-1" d="M.5,39.79c.09-5.5,8.59-5.54,8.5,0"/>
      <path class="cls-1" d="M9,40.25c.08-6.13,8.23-5.82,8.14,.35"/>
      <path class="cls-1" d="M25.85,40.52c.08-6.13,8.08-6.17,7.99,0"/>
      <path class="cls-1" d="M33.84,40.52c.08-6.13,8.08-6.17,7.99,0"/>
      <path class="cls-1" d="M41.84,40.52c.08-6.13,8.55-6.44,8.46-.27"/>
      <path class="cls-1" d="M17.1,40.71c.09-6.33,8.85-6.84,8.76-.46"/>
      <g>
        <line class="cls-1" x1="4.65" y1="25.98" x2="46.15" y2="25.98"/>
        <line class="cls-1" x1="4.65" y1="22.33" x2="4.65" y2="26.35"/>
        <line class="cls-1" x1="45.77" y1="21.96" x2="45.77" y2="26.35"/>
        <path class="cls-1" d="M4.65,22.33c.07-4.36,7.09-4.39,7.01,0"/>
        <path class="cls-1" d="M11.66,22.69c.07-4.85,6.76-4.78,6.69,.11"/>
        <path class="cls-1" d="M25.58,22.91c.07-4.85,6.67-4.89,6.6,0"/>
        <path class="cls-1" d="M32.18,22.91c.07-4.85,6.67-4.89,6.6,0"/>
        <path class="cls-1" d="M38.78,22.91c.07-4.85,7.06-5.1,6.98-.21"/>
        <path class="cls-1" d="M18.36,23.06c.07-5.02,7.31-5.42,7.23-.37"/>
      </g>
      <g>
        <line class="cls-1" x1="8.34" y1="11.27" x2="42.46" y2="11.27"/>
        <line class="cls-1" x1="8.34" y1="8.08" x2="8.34" y2="11.59"/>
        <line class="cls-1" x1="42.14" y1="7.76" x2="42.14" y2="11.59"/>
        <path class="cls-1" d="M8.34,8.08c.06-3.81,5.83-3.84,5.77,0"/>
        <path class="cls-1" d="M14.11,8.4c.06-4.24,5.62-4.32,5.56-.05"/>
        <path class="cls-1" d="M25.55,8.59c.06-4.24,5.49-4.27,5.43,0"/>
        <path class="cls-1" d="M30.98,8.59c.06-4.24,5.49-4.27,5.43,0"/>
        <path class="cls-1" d="M36.4,8.59c.06-4.24,5.8-4.46,5.74-.19"/>
        <path class="cls-1" d="M19.61,8.72c.06-4.39,6.01-4.74,5.95-.32"/>
      </g>
    </g>
  </g>
</svg>