<?xml version="1.0" standalone="no"?>
<!DOCTYPE svg PUBLIC "-//W3C//DTD SVG 20010904//EN"
 "http://www.w3.org/TR/2001/REC-SVG-20010904/DTD/svg10.dtd">
<svg version="1.0" xmlns="http://www.w3.org/2000/svg"
 width="69.000000pt" height="63.000000pt" viewBox="0 0 69.000000 63.000000"
 preserveAspectRatio="xMidYMid meet">

<g transform="translate(0.000000,63.000000) scale(0.100000,-0.100000)"
fill="#000000" stroke="none">
<path d="M222 471 c-66 -49 -80 -134 -32 -202 20 -28 21 -31 6 -48 -30 -33
-12 -42 37 -16 15 8 33 12 41 9 9 -3 11 3 8 24 -5 38 22 96 56 119 16 10 53
20 89 23 l62 5 -16 33 c-26 54 -77 82 -149 82 -52 0 -67 -4 -102 -29z"/>
<path d="M344 316 c-44 -44 -45 -83 -5 -128 25 -28 38 -33 92 -39 35 -4 77
-11 93 -15 l28 -7 -17 26 c-15 24 -15 28 -1 49 26 37 20 76 -18 114 -30 30
-40 34 -86 34 -46 0 -56 -4 -86 -34z"/>
</g>
</svg>
