<?xml version="1.0" encoding="utf-8"?>
<!-- Generator: Adobe Illustrator 26.4.1, SVG Export Plug-In . SVG Version: 6.00 Build 0)  -->
<svg version="1.1" id="_Слой_2" xmlns="http://www.w3.org/2000/svg" xmlns:xlink="http://www.w3.org/1999/xlink" x="0px"
	 y="0px" viewBox="0 0 75.9 66.7" style="enable-background:new 0 0 75.9 66.7;" xml:space="preserve">
<style type="text/css">
	.st0{fill:#FD7B7C;}
	.st1{opacity:0.11;fill:#FD7B7C;enable-background:new    ;}
	.st2{enable-background:new    ;}
	.st3{fill:#545454;}
</style>
<g>
	<g>
		<g>
			<path class="st0" d="M36.8,66.5c0.2-0.3,0.5-1,0.3-0.9l-0.7,1.1L36.8,66.5L36.8,66.5z"/>
			<path class="st0" d="M37.1,63.8c-0.4,0.5-1.1,1.4-1.6,2.5c0.7-1.1,0.5-0.6,1.4-1.8c0.2-0.1,0,0.5-0.2,0.9
				c0.2-0.3,0.1,0.4,0.5-0.3c0.3-1,0.1-1.1-0.5-0.5C36.7,64.3,37,64.1,37.1,63.8L37.1,63.8z"/>
			<path class="st0" d="M20.4,48.6c0.1,0,0.2-0.1,0.3-0.1C20.6,48.5,20.5,48.5,20.4,48.6z"/>
			<path class="st0" d="M20.4,46.6L20.4,46.6C20.5,46.6,20.5,46.5,20.4,46.6z"/>
			<path class="st0" d="M26.4,54.6l0.1-0.5C26.2,54.5,26.4,54.5,26.4,54.6z"/>
			<path class="st0" d="M33.8,65.7c0.1,0,0.2-0.1,0.3-0.2C34,65.5,34,65.6,33.8,65.7C33.9,65.6,33.8,65.7,33.8,65.7L33.8,65.7z"/>
			<path class="st0" d="M30.1,56L30.1,56c0.2-0.1,0.3-0.2,0.4-0.4L30.1,56z"/>
			<path class="st0" d="M32.5,57.4c0-0.1-0.7,0.9-0.9,1.3c0.3-0.4,0.4-0.5,0.5-0.6C32.3,57.9,32.4,57.7,32.5,57.4L32.5,57.4z"/>
			<path class="st0" d="M35.4,61.4l0.2-0.1C35.6,61.3,35.5,61.4,35.4,61.4z"/>
			<path class="st0" d="M28.5,54.6c0.1-0.1,0.2-0.3,0.2-0.3C28.7,54.4,28.6,54.5,28.5,54.6z"/>
			<path class="st0" d="M38.4,6.9c0,0.1-0.1,0.1-0.1,0.2L38.4,6.9z"/>
			<path class="st0" d="M37.7,13.5L37.7,13.5c-0.2,0.2-0.4,0.3-0.5,0.5L37.7,13.5z"/>
			<path class="st0" d="M10.4,24.9c-1,0.3-1.3-0.4-2.4,0C8.4,24.9,9.7,25.2,10.4,24.9z"/>
			<path class="st0" d="M15.9,39.8c-0.2,0.1-0.3,0.2-0.4,0.3C15.6,40,15.7,39.9,15.9,39.8z"/>
			<path class="st0" d="M13.3,38.8c0-0.1,0.2-0.2,0-0.2c-0.1,0-0.1,0.1-0.1,0.1C13.3,38.6,13.4,38.7,13.3,38.8z"/>
			<path class="st0" d="M12.2,36.7c-0.1,0-0.1,0.1-0.2,0.1L12.2,36.7L12.2,36.7z"/>
			<path class="st0" d="M30.2,3c0,0.3-0.1,0.7-0.2,1C30.2,3.2,30.7,3.1,30.2,3z"/>
			<path class="st0" d="M34.1,65.2c-0.2,0.2-0.2,0.3-0.3,0.4h0.1C34,65.4,34.1,65.3,34.1,65.2L34.1,65.2z"/>
			<path class="st0" d="M5.6,43.2l-0.1-0.5C5.5,42.9,5.5,43,5.6,43.2z"/>
			<path class="st0" d="M4.8,41.6c0.3-0.3,0.5-0.4,0.6-0.6c-0.1,0-0.2,0-0.3,0.1L4.8,41.6L4.8,41.6z"/>
			<path class="st0" d="M33.9,2.8c-0.4-0.2-0.8,1.2-1.3,1.9C32,4.9,32.9,3.6,33,2.9c-0.5,0.2-1.3,1.3-1.5,1.2
				c0.1-0.2,0.1-0.3,0.3-0.6c-0.8,1-1-0.4-1.9,0.9c0-0.1,0-0.3,0.1-0.4c-0.2,0.7-0.5,1.4-0.7,1.9c-0.2,0-0.6,0.8-0.4-0.2
				c0.1,0.1,0.2-0.3,0.4-0.6L29,5.5c0.3-1.4,0.4-0.4,0.8-1.3c-0.5,0.3-1.3,1.2-1.5,0.8c0.4-1.3,0.8-0.2,0.8-1.5l0.3,0.7
				c0.4-2.1,0.2,0.2,0.7-2c-0.5-0.6-0.9,0.4-1.4-0.2c-0.4,0.6-0.3,1-0.7,1.7c-1.2,1,0.2-3.5-0.9-1.9c-0.4,0.8-0.8,2.5-1.1,1.5
				l0.5-1.5c-0.6-0.3-0.8,2.1-1.2,1c0.2-0.6,0.6-0.4,0.5-0.6C25.6,0.9,25.3,3,25,2.9l0.2-1.4c-0.7,0.1-1.6,1-2.3,1.2
				C23,2.3,23.1,1.9,23,1.5c-1,0.6-2-0.3-3.1-1l-0.3,1.2c-0.1,0-0.2-0.5-0.1-0.8c-0.4-0.4,0,0.7-0.1,1.2c-0.2,0.1-0.3-0.6-0.2-1
				c-0.6,1-1.5,2.3-2.5,1.3L16.6,2c-0.7-0.3,0,2.5-0.8,1.5V3.3c-0.6-0.1-1.2,0.2-1.7,0.4C13.5,3.9,13,4,12.2,3.4
				c0.3,0.8-0.1,0.8-0.4,0.8s-0.6,0.2,0,1.2c-1.2-0.6-1.3-1.1-2.6-1.2C9.1,4.3,9.9,5.7,9.8,6.1L9,5.1C9.2,5.5,9.4,6,9.5,6.4l-1.1-1
				v0.4C8.5,5.8,9,6,9.2,6.3C9.2,7,7.8,6.4,7.3,6v1.6C6.9,7.3,6.9,7.1,6.7,6.7c0.6,1.3-1-0.8-0.5,0.5c0.3,0.1,0.5,0.5,0.7,0.7
				C6.1,7.6,5.7,8.1,5.7,8.6L5.1,8c-0.7,0.6-0.7,1.7-1.2,2.5c0.5-0.1,1.7,0.7,1.7,1L4.4,11C5,11.5,5,11,5.7,11.8
				C5.4,12,4.3,11.3,4,10.9l0.2,0.6c-0.4-0.2-0.5-0.3-0.9-0.6C3.9,11.4,1.8,11,3,11.8l-0.4-0.1c-0.4,0.9-0.2,1.4-0.4,2.1
				c1,0.4,0.7,0.6,1.5,1.1c-0.5,0.3-1.5,0.6-1.6,1.2c0.4,0.6,0.9,0.4,1.5,0.8c-1-0.3-1.1,0.4-1.7-0.1c-0.1,0.8-0.1,1,0.6,2
				c0.4,0,0.6-0.1,1,0C3.6,19,3,19.1,2.5,19l-0.1-0.1c0.7,0.6-0.2,1.1-1,1.5c-0.7,0.5-1.4,1-0.3,1.5H1c0.4,0.3,0.7,0.6,1,0.9
				c-0.2,0.4-0.8-0.3-1.4,0c0.8,0.5,0.8,0.9,0.6,1.2c-0.1,0.3-0.3,0.7,0.3,1C0,25.4,0,25.9,0.3,26.5c0.2,0.5,0.6,1-0.3,1.6L0.7,28
				c0.7,0.1-0.4,0.3-0.5,0.5c0.6-0.1,0.6-0.3,1-0.2C1.7,29.1,1.6,30,1.4,31c-0.3,1-0.6,2-0.7,3c0,0.7,3.6-0.7,2.2,0.6l-1.3,0.2
				c0.9,0.4,1.2,1,1.4,1.6s0.3,1.3,1.2,1.6c-0.3,0-0.7,0.2-0.7,0.1c-0.8,0.6,0.4,0.9,1.1,0.6c0,0.2-0.6,0.3-0.9,0.6
				c-0.4,0.5,1.4,0.1,0.6,0.6C4.2,40,4,40,3.9,39.9c0.5,0,0.2,0.8,1.2,0.1c-0.3,0.7,0.8,0.5,0.4,1.2c1.2-0.4-0.2,1,1.4,0.2
				c-1.6,0.8-0.9,1.4,0,1.2c-0.5,0.2-0.4,0.5-1.1,0.8c0.2,0.3,0.6,0.4,1.4-0.2c-1.5,1.7,2.1,0.1-0.1,1.9c1.4,0.3,2.4,0.6,3.2,1.1
				c-1.5,1-0.7-0.7-2.2,0.5c1.1,0.3,2.6-0.3,2.8,0.6c-0.1,0.3-0.7,0.4-1,0.5c1.1,0.2,0.8,1.4,2.1,1.3c-0.1,0.1-0.3,0.2-0.5,0.2
				c0.1,0.1,0,0.4,0.6-0.1h-0.3c0.8-0.9,2.3-1.2,2.8-1.6c-1.9,1.3,0,0.9-2.5,2.6c0.2,0,0.6-0.2,0.9-0.6c0,0.2-0.2,0.5-0.8,0.8
				c0.7,0.1,1.2-0.6,1.5-0.3c-0.3,0.3-0.5,0.3-0.9,0.6c0.7-0.3,1.5-0.7,1.5-0.2c-0.2,0.2-0.4,0.4-0.5,0.3c0.6,0.4,2.3-0.6,2.2,0.4
				c-1.4,1.1-0.2,0.6-1.3,1.7h0.6l0.4-0.6c0.2,0.3,1.2-0.3,1.1,0.2l-0.6,0.3l0.6,0.2l0.2-1c0.8-0.3,1.3-1.4,1.3-0.8
				c-0.2,0,0.2,0.2-0.3,1l0,0c0.4-0.2,0.9-0.5,0.8-0.1c-0.3,0.4-1.1,1.2-1.3,1.5c1-0.8,0.8,0.3,1.8-0.6c-0.3,0.2-0.8,0.8-0.9,0.9
				l0.8-0.7c-0.1,0.3-0.2,0.5-0.6,0.9c0.2,0.4,1.1-1.5,1-0.5c-0.1,0-0.2,0.2-0.3,0.2c0.1,0.7,1.2,0.2,1.3,0.9
				c-0.9,1.2-0.6,0-1.3,1.1c0.7,0.3,2.3-0.4,2.6,0.3v-0.2c1.4-1.6-0.3,1.1,0.6,0.6c-0.2,0.1-0.8,0.8-0.7,0.7
				c0.2,0.6,1.1,0.2,2.1,0.1l-0.4,0.4c-0.1,0.6,0.4,0.7,0.5,1.1c0.4-0.4,0.5-0.2,0.9-0.9c-1.1,3.1,2.4-0.3,1.6,2.3
				c-0.1,0-0.5,0.3-0.4,0.3H27c0.5-0.8,0.2-0.5,0.5-1.2c0.4-0.4,0.8-0.6,0.9-0.5c-0.6,0.3-0.8,1.2-1,1.7c0.1-0.3,0.4-0.5,0.5-0.7
				c-0.6,1.6,1.1-1.5,0.9-0.3l-0.3,0.4c0.3-0.1,0.8-0.5,0.9-0.3c-0.5,0.9-0.4,0.3-0.9,1c0.3,0.1,1.6-1.4,1.2-0.3
				c-0.3,0.2-0.4,0.1-0.7,0.3c-0.5,1.2-0.3,1-0.2,1.2l0,0l0.1,0.7L29,62c1.8-2.1,0.9,0,2.3-1.3c-1.3,1.2-0.6,0.8-1.3,1.8
				c-0.1,0.3-0.1,0.8-0.3,1c0.7-0.7-0.1,0.9,1-0.2c-0.2,0.3,0.2,0.2-0.4,1c0.4-0.1,0.3-0.6,0.6-1c1.1-0.9,0.1,2,1.6,0.7
				c0.9-0.4,1.6-1.5,2.4-1.8c-0.2,0.6-0.8,1.2-0.8,1.2c0,0.6,0.2,0.7,0.7,0.4c-0.2,0.3-0.3,0.6-0.4,1c0.2,0,0.8-1.2,0.8-0.5
				c-0.3,0.4-0.6,0.9-0.9,1.3c0.4-0.2,1-0.7,1.4-0.9c-0.3,0.6-0.6,0.8-0.9,1.2c0.4-0.1,1-0.2,1.6-1.1v-0.4c0.1,0-0.4,0.8-0.5,1
				c-0.6,0.6-0.2-0.5,0-0.9l0.3-0.1c0.9-2.1-0.8,0-1.1-0.3l0.9-1.4l-1,1c0.1-0.4,0.5-1.3,0.8-1.4c0.2-0.8-0.5,0.4-0.2-0.5
				c0-0.1,0.1-0.2,0.2-0.3L35,61.7c0.2-0.3,0.5-1,0.6-0.8c0.1-1-1.3,0.7-0.8-0.5l0.1-0.1c-0.8,0.2-0.7,1-1.8,2l1.3-2.8l-0.7,1
				c0-0.1-0.1-0.2,0.2-0.6c-0.6,0.6-0.2,0.5-0.8,1.1c0.3-1.1-1,0-0.1-1.7c-0.6,0.7-0.1,0.8-0.8,1.1c1-1.8-0.5,0.1-0.3-0.9
				c0.6-0.9,0.6-0.2,0.9-1.2c-1.1,1.5-0.3-0.6-0.6-0.5c-0.8,1.2-0.8,0.2-1.4,0.4c0.3-0.4-0.2-1.1-0.2-1.7l0.1-0.2
				c-0.9,1.2-1,0.7-1.5,0.8c0.5-0.7,0.8-1,1.1-1.2L30.1,56c-0.3,0.3-0.5,0.5-0.8,0.5l0.7-0.9c-0.3-0.2-1.3,0.7-1.3-0.2
				c-0.6,0.8-1.4,2.5-2.2,2.8c0.3-0.5,0.9-1.2,1.1-1.3c-0.1,0-0.4,0.3-0.3,0l0.7-0.6c0.1-0.5-0.5,0.6-0.6,0.4c0.5-0.6,0.2-0.5,0.6-1
				c0.1,0-0.1,0.3,0.2,0.1c-0.1-0.2,0-0.7,0.3-1.3c-0.3,0.4-0.6,0.9-0.8,0.9c-0.3-0.2,0.5-0.8,0.5-1.3c-0.4,0.4-0.2-0.2-0.9,0.8
				c-0.1-0.1,0.2-0.5,0.4-0.8c-0.5,0.3-0.8-0.4-1.4,0.7v0.1h-0.1c-1.2,0.6-0.6-1.3-1.4-1.3l0.3-0.3c-0.6,0.1-0.8-0.3-1.5,0.2
				c-0.1-0.1,0.3-0.7,0.6-1c-0.4,0.1-0.7,0.4-0.6-0.4c0.6-0.3,0.3-0.5,0.5-0.2c0-0.5,0.3-1-0.7-0.4c0.8-0.7,0.6-1.1,0.3-1l-0.3,0.7
				c-0.2,0-0.3-0.2-0.4-0.4l0.9-1c0.5-1.7-2.8,1.2-1.4-1.2c-0.8,0.6-0.1,0.8-1,1.5c-0.1-0.4,0.9-2,0.8-2.1c0.2-0.8-1.6,1.2-1.6,0.5
				c-0.3,0.4-1.1,1.3-1.7,1.4c-0.1-0.4,1.1-1.7,1.5-1.9c0.1,0,0,0.2-0.1,0.3c0.2,0,0.4-0.1,0.7-0.6L21,48.2c0.2-0.5-0.1-0.7,0.5-1.2
				c-0.5,0.2-0.6,0.5-0.7,0.8c0.2-0.8-0.4-0.5-0.4-1.1c-0.1,0.2-0.5,0.7-0.5,0.6c0-0.9-0.8,0.4-1.3,0.3c0.4-0.7,1.3-1.1,0.6-1
				c0.2-0.5,0.9-0.9,1.2-1.1c-0.9,0.4,0-0.9,0-1.2l0.4-0.1c-0.3,0.1-0.3,0-0.4-0.1l-0.6,0.7c0-0.2,0-0.3,0.3-0.5
				c-0.5,0.3-1.1,1.1-1.9,1.5c0.3-0.4-0.7,0,0.2-0.9c0,0.7,0.9-0.9,1.3-0.7c-0.1,0-0.2-0.1-0.2-0.2c0.1-0.1,0.2-0.2,0.3-0.2
				c0.5-1.1-1.2,0.8-1.5,0.4c0.6-0.4,1-1,0.8-0.9c0.1,0.2-0.8,0.8-1.4,1c0.2-0.6-0.5,0-0.6-0.2L17,44.4c-0.6,0.4-0.6,0.2-0.9,0.2
				c0.4-0.4,0.4-0.1,0.6-0.3c-1.1,0.6,0.6-1.2-0.2-1c0.3-0.4,1-0.8,1.2-1.2c-1,0.3,0.5-0.9-0.3-0.8c-0.7,0.7-0.5,0.5-1.4,0.9
				l0.9,0.1L15.5,43c0.1,0.2,0.7,0,0.7,0.2c-0.7,0.3-0.5,0.2-1.1,0.8c1-1.1-1,0.1-0.4-0.8l1.9-1.4c0.6-1-1.5,0-1.3-0.8L15,41.3
				c-0.8,0.5-0.3-0.2-0.8-0.2c0.7-0.4,0.8-0.7,1.2-1c-0.5,0.3-0.2-0.4-1.6,0.4l0.7-0.8c0.1-0.6-2.2,0.7-2.2,0.2
				c0.8-0.3,1.2-0.8,1.9-0.9c-0.1-0.1,0-0.3-0.5,0c0.4-0.3-1.1,0.2-0.6-0.3C12.8,38.8,12,39.2,12,39c0.1-0.1,0.3-0.2,0.3-0.2
				c-0.3,0.2-0.6,0-1.3,0.6c1.9-1.6-0.8-1.2,0.8-2.5c-0.4-0.2-0.8-0.4-1-0.7c0.2-0.1,0.4-0.2,0.3-0.1c0.5-0.7-2.2,0.7-1.6-0.1
				c1.1-0.8,0.7,0,1.1-0.4c2.3-1.1-0.6-0.4,0.7-1.3h0.2c0.7-0.5-1.1-0.2-1.1-0.6c0,0,0.2-0.1,0.4-0.1c-1.3,0.2-1.9-0.2-2.4-0.4
				c1-0.2,0.6,0,1.5-0.4C9.8,32.6,8.4,33.3,8,33c0.5-0.3,0.9-0.7,1.9-1.1c0,0.1,0.1,0.2,0.2,0.3c1.3-0.6-0.2-0.4,0-0.6l0.6-0.2
				c-0.3-0.4-1.8,0-1.9-0.5l-0.4,0.2c-1.6,0.1,0.8-0.5-0.4-0.5l1.5-0.5c-0.4-0.1-1.6-0.3-2-0.6c1.2,0,1.8,0.2,2.6,0.3
				c0-0.2-0.2-0.6-1-0.5c0.2,0,0.6,0.1,0.3,0.2c-1.3,0-1.9-0.2-2-0.6c3-0.5,0.5-1.1,2.9-1.8c-1.2-0.5,0.3-1.3,0.1-2
				c-2.4,0.5,0-0.1-2.5,0c-0.2-0.2-0.1-0.3,0-0.3c0.5-0.2,1-0.4,1.4-0.6c0.7-0.1,0.5,0.2,1.1,0.1c0.2-0.4,1-0.1,1.7-0.4
				c-0.9,0-1.3-0.1-0.9-0.3L10.1,24c-1.3-0.6,2.1-0.4,0.8-0.9l0.8,0.2c-0.4-0.3,0.1-0.9-1.8-1.4c0.3,0,0.9,0,1.1,0.1
				c0.1-0.3-0.3-0.7-0.6-1.1s-0.6-0.8,0.1-0.9l0.6,0.2c-0.1-0.1-1.1-0.4-0.4-0.5c0.2,0.1,0.6,0.2,0.6,0.1c-0.2-0.1-1-0.5-0.6-0.6
				l0.6,0.3c0.9-0.4-1.3-1.3-1.5-2c1.7,0.5,2.3,0.3,2.7,0.2l0.2,0.1c0.2-0.3,0-0.6-0.4-1.1c-0.3-0.4-0.7-0.9-0.9-1.4
				c1.9,0.5,1.3-0.8,2.5-0.6c-0.3-0.1-1.1-0.8-1.2-1c0.4,0.1-0.7-1.1,0.5,0h-0.1c1.3,0.9,1.1,0.5,1.3,0.3l-1.6-1.4
				c1.4,0.8,1.3,0.4,1.4-0.1c0-0.4,0-1,1,0.1c-0.2-0.5-0.1-0.6-0.3-1.1l0.6,0.9c0.4,0.1,0.6,0.1,0.8-0.3l0.3,0.7
				c0.2,0-1.3-3-1.1-3.2l0.8,1.5c0.4-0.2,1.3,1,1.2-0.5c0.1,0.2,0.2,0.7,0.2,0.8c0.2,0,1,0.9,0.4-1.3c0.4,1.5,0.5,0,0.6-0.7l0.1,1.1
				c0-1.4-0.1-1.8,0.2-2.3c0.1,0.1,0.2,0.9,0,0.6c0.3,0.6,0.1-1.1,0.5-0.5L19.4,9c0.3,0.1,0.2-0.3,0.3-1.2c0.2-0.4,0.6,0.3,0.6,1.3
				c0-0.6,0.2-1.4,0.3-1.2c0,0.4,0,0.6-0.1,0.7c0.4,0.8,0.8-1.3,1-0.2v0.7c-0.4,0-0.6-0.1-0.6-0.2c0,1,0.2,1.2,0,2.6
				c0.2-0.8,0.7-2.4,1-1.9v0.5c0,0.1,0.1,0,0.2-0.1c0.1,0.2,0.1,0.3,0.2,0.3c-0.1,0.8,0.3,0.5,0.4,0.6C22.8,9.8,23,10,23,9
				c0,0.1,0,0.1-0.1,0.2c-0.1,0.1-0.1,0-0.1,0.1V9.2h-0.4c0.2-0.6,0.4-1,0.5-0.4c0.2-0.7,0.4-1.4,0.5-1.8c0,1.6,0.2,2.5,0.1,3.4
				c0.5-0.5,1.1-0.2,1.9-2.2c0.2-0.2,0,0.6,0,1c-0.1,0.2-0.2,0.1-0.3,0.4c0.4-0.5,0.8,0,1.3-1.4c0.1,0.7-0.6,1.2-0.1,1.1l-0.2,0.4
				c0.1,1.2,0.7,0.5,1.4-0.2c0.7-0.7,1.4-1.2,1.3,0.4c0-0.2,0-0.3,0.1-0.5c0.3,0.9,1,0.8,1.6,0.9c0.6,0.1,1.3,0.3,1.2,1.6
				c0,0.5,0.6-0.2,1.2-0.7l-0.6,1.1l1.1-0.9c0.5-0.3,0.3,0.5,0.1,1.1s-0.3,1.2,0.5,0.6l0.4-0.7c0.1,0.3,0.9,0.1,0.3,0.8
				c0.1-0.1,0.6-0.6,0.4-0.2l-0.4,0.5l1.1-0.4c0,0.6-1.7,1.9-1.3,2.3c0.3,0,1.7-0.9,2-1.3c0-0.1,0.1-0.5,0.5-0.9l0.4-0.1
				c1.3-1.3,2.8-2.5,3.2-4l-1.1,0.5L40,8.8L40.3,9c0.4-0.8-0.2-0.3-0.7-0.1c0.3-0.4,0.5-0.7,0.5-0.9l-1.5,1.1c0.4-0.6,1.1-1,1.1-1.5
				C39,8.1,38.8,9,38.2,9.2c0.4-0.8,0.9-1.3,0.2-0.9c0.3-0.4,0.5-0.6,0.7-0.7c-0.5,0.3-0.7-0.2-1.3,0.5c0.5-1-0.8-0.3,0.3-1.7
				c-0.3,0.3-1.2,0.9-1.4,0.8c1.5-1.5-0.6-0.6,0.8-2.4c-1.3,1.4-1.4,0.1-2.4,0.7c0.1-0.1,0.3-0.3,0.3-0.2c-0.2-0.3,0-0.8,0.1-1.2
				c-0.8,1.3-1.4,1.4-2.1,2.1C34,5.3,34.7,5.3,35.3,4c-0.6,1.1-1.2,0.8-1.6,1.8c0.2-0.9,0-0.5,0.5-1.7c-1,1.7-0.4,0.2-1.1,1.1
				c0.1-1,0.7-1.7,0.1-1.3C33.2,3.2,33.9,2.8,33.9,2.8L33.9,2.8z M22.8,3.1L22.8,3.1C22.9,3,22.9,3,23,3C22.9,3,22.9,3,22.8,3.1
				L22.8,3.1z M21.9,3c0.1,0,0.2,0.1,0.4,0.1c0,0.4,0,0.8-0.1,0.8C22.2,3.6,22,3.3,21.9,3L21.9,3z M22.7,10.9
				c-0.1,0.1-0.1-0.1-0.1-0.3c0,0,0.1,0,0.2-0.1v-0.1C22.8,10.6,22.8,10.8,22.7,10.9z"/>
			<path class="st0" d="M23.1,9.5C23.1,9.5,23.1,9.4,23.1,9.5L23.1,9.5C23,9.5,23.1,9.5,23.1,9.5z"/>
			<path class="st0" d="M26.4,54.8L26.4,54.8c0,0,0,0.1-0.1,0.1C26.4,54.9,26.4,54.9,26.4,54.8z"/>
			<polygon class="st0" points="8.8,4.9 9,5.1 8.9,4.9 			"/>
			<path class="st0" d="M27.5,60.4c0,0.1-0.1,0.2-0.1,0.3C27.4,60.6,27.4,60.5,27.5,60.4z"/>
			<path class="st0" d="M29.8,62.9c0.1-0.2,0.2-0.3,0.3-0.4l0,0L29.8,62.9z"/>
			<path class="st0" d="M11.4,49L11.4,49C11.1,49.1,11.2,49.1,11.4,49z"/>
			<path class="st0" d="M18,52.2c-0.2,0.1-0.4,0.2-0.5,0.2C17.6,52.6,17.6,52.7,18,52.2z"/>
			<path class="st0" d="M17.3,52.2c-0.1,0.3,0,0.3,0.2,0.2C17.5,52.4,17.5,52.2,17.3,52.2z"/>
			<path class="st0" d="M34.9,66.4L34.9,66.4C35,66.4,35,66.3,34.9,66.4L34.9,66.4z"/>
			<path class="st0" d="M35,66.3L35,66.3C35.2,66.3,35.1,66.2,35,66.3z"/>
			<path class="st0" d="M35.4,66.1l-0.3,0.2C35.2,66.3,35.3,66.4,35.4,66.1z"/>
			<path class="st0" d="M33.5,65.1l-0.2,0.3C33.3,65.3,33.4,65.2,33.5,65.1z"/>
			<path class="st0" d="M32.9,64.9c0.1,0.2-0.1,0.9,0.2,0.8l0.2-0.3C32.9,65.9,33.4,64.4,32.9,64.9L32.9,64.9z"/>
			<path class="st0" d="M33.5,59.4l0.2,0.5c0.2-0.4,0.4-1,0.6-1C34.5,57.5,33.9,59.8,33.5,59.4z"/>
			<path class="st0" d="M32.6,58.1c0.3,0,0.3-0.5,0.5-0.7C32.8,57.6,32.7,57.7,32.6,58.1z"/>
			<path class="st0" d="M24.5,52.2l0.7-0.8C24.9,51.4,24.9,51.7,24.5,52.2z"/>
			<polygon class="st0" points="19.5,54.9 19.3,55.5 20,54.9 			"/>
			<polygon class="st0" points="23.5,48.7 23.6,48.6 23.1,48.7 			"/>
			<path class="st0" d="M13.3,36.6l-1.1,0.6C12.4,37.3,13.7,36.6,13.3,36.6z"/>
			<path class="st0" d="M9.6,30.8c0.6-0.2,0.9-0.5,0.3-0.5C9.8,30.5,9.4,30.8,9.6,30.8z"/>
			<polygon class="st0" points="14.2,13.7 14.5,14 14.3,13.6 			"/>
			<path class="st0" d="M45.9,3.7c0,0,0.6,0.5,0.5,1.2c-0.5-0.5-0.1,0.3-0.1,1.3c-0.5-1-0.2,0.6-0.9-1.3c0.3,1.3,0.2,0.8,0.2,1.8
				c-0.2-1.1-0.9-0.9-1.3-2.1c0.4,1.4,1.1,1.5,1.5,2.5c-0.6-0.8-1.1-1-1.7-2.4c0,0.4,0.1,0.9-0.1,1.2c0-0.1,0.2,0.1,0.3,0.2
				C43.4,5.3,43.1,6.6,42,5c1.1,2-0.8,0.8,0.4,2.5c-0.2,0.1-1-0.7-1.2-1c0.8,1.6-0.3,0.7,0,1.7c-0.5-0.8-0.8-0.3-1.2-0.7
				c0.2,0.1,0.3,0.4,0.6,0.8c-0.6-0.5-0.2,0.1,0,0.9C40,8.9,40,8,39.4,7.4c-0.1,0.5,0.5,1,0.8,1.7l-1.3-1.3c0,0.2,0.1,0.5,0.3,1
				c-0.5-0.3-1-0.9-0.7,0l0.3-0.1l0.4,0.9l-1-0.7c0.1,1.5,1.4,3,2.5,4.5l0.4,0.2c0.3,0.5,0.4,0.9,0.3,1c0.2,0.4,1.4,1.6,1.7,1.6
				c0.5-0.3-1-1.9-0.9-2.5l1,0.6L43,13.5c-0.1-0.4,0.3,0.2,0.4,0.3c-0.5-0.8,0.3-0.5,0.4-0.7l0.3,0.8c0.7,0.7,0.7,0.1,0.6-0.5
				c-0.1-0.6-0.2-1.4,0.3-1.1l0.9,1.1l-0.4-1.2c0.5,0.6,1,1.4,1.1,0.9c0.1-1.3,0.9-1.4,1.5-1.4c0.6,0,1.3,0.2,1.7-0.6
				c0.1,0.2,0,0.3,0,0.5c0.2-1.6,0.8-1,1.3-0.2c0.6,0.8,1,1.6,1.3,0.4l-0.1-0.4c0.5,0.2-0.1-0.4,0.1-1.1c0.2,1.5,0.7,1,1,1.6
				c0-0.3-0.2-0.2-0.2-0.4c0.1-0.4,0-1.2,0.2-1c0.4,2.1,1.1,1.9,1.5,2.5c0.1-0.9,0.4-1.8,0.7-3.3c0,0.4,0.1,1.1,0.2,1.9
				c0.2-0.6,0.3-0.1,0.4,0.5l-0.4-0.1l0,0.1c0-0.1,0,0-0.1-0.1c-0.1-0.1-0.1-0.1-0.1-0.2c-0.2,1,0.1,0.8,0,1.9
				c0.1-0.1,0.5,0.3,0.5-0.5c0.1,0,0.1-0.1,0.2-0.3c0.1,0.1,0.2,0.2,0.2,0.1l0.1-0.5c0.4-0.4,0.6,1.2,0.7,2c0-1.4,0.3-1.6,0.5-2.6
				c0,0.1-0.2,0.2-0.6,0.1l0.1-0.7c0.4-1,0.4,1.1,1,0.4c-0.1-0.1,0-0.3,0-0.7c0.1-0.2,0.2,0.6,0.1,1.2c0.2-1,0.7-1.6,0.8-1.2
				c-0.1,0.9-0.2,1.3,0.1,1.2l0-0.7c0.5-0.5,0,1.1,0.4,0.6c-0.2,0.3,0-0.5,0.1-0.6c0.2,0.5,0,0.9-0.2,2.3l0.3-1.1
				c0,0.7-0.2,2.2,0.5,0.8c-1,2.1,0,1.3,0.2,1.3c0-0.1,0.2-0.6,0.3-0.8c-0.4,1.5,0.7,0.4,1.1,0.7l1-1.3c0.2,0.2-1.8,2.9-1.6,3
				l0.4-0.6c0.1,0.4,0.3,0.5,0.7,0.4l0.7-0.8c-0.3,0.5-0.2,0.6-0.5,1c1.2-0.9,1.1-0.3,1,0.1c0,0.5-0.2,0.9,1.4,0.3l-1.8,1.1
				c0.2,0.2-0.1,0.6,1.3-0.1l-0.1,0c1.4-0.9,0.1,0.1,0.5,0.1c-0.1,0.2-1,0.7-1.4,0.8c1.2,0,0.4,1.2,2.4,1c-0.3,0.5-0.8,0.9-1.1,1.2
				c-0.5,0.4-0.7,0.7-0.6,1l0.2-0.1c0.4,0.2,0.9,0.5,2.7,0.3c-0.3,0.7-2.6,1.2-1.8,1.7l0.6-0.2c0.4,0.2-0.5,0.4-0.7,0.5
				c0,0.1,0.4,0.1,0.6,0c0.7,0.2-0.4,0.3-0.5,0.4l0.6-0.1c0.7,0.2,0.3,0.6-0.1,0.9c-0.4,0.3-0.8,0.7-0.8,1c0.2-0.1,0.8,0,1.1,0.1
				c-2,0.2-1.6,0.8-2,1.1l0.8-0.1c-1.4,0.3,2,0.7,0.6,1l-1-0.6c0.4,0.3-0.1,0.3-0.9,0.1c0.6,0.4,1.5,0.3,1.6,0.7
				c0.6,0.2,0.4-0.1,1.1,0.1c0.4,0.3,0.8,0.6,1.3,0.8c0.1,0,0.2,0.1-0.1,0.3c-2.4-0.5-0.2,0.5-2.5-0.4c-0.3,0.7,1,1.7-0.2,2
				c2.2,1.1-0.3,1.3,2.5,2.3c-0.2,0.4-0.8,0.5-2.1,0.2c-0.3-0.2,0.1-0.2,0.3-0.1c-0.8-0.2-1,0.1-1.1,0.3c0.8,0,1.4-0.1,2.6,0.2
				c-0.4,0.2-1.7,0.2-2.1,0.2l1.4,0.8c-1.2-0.2,1.1,0.8-0.5,0.4l-0.4-0.3c-0.2,0.5-1.6-0.2-2,0.2l0.6,0.3c0.2,0.2-1.3-0.2-0.1,0.6
				c0.1-0.1,0.2-0.2,0.2-0.3c0.9,0.6,1.2,1,1.7,1.4c-0.4,0.2-1.7-0.7-1.8-0.5c0.8,0.6,0.5,0.3,1.4,0.7c-0.5,0.1-1.2,0.4-2.4,0
				c0.2,0,0.4,0.2,0.4,0.2c-0.1,0.4-1.8-0.2-1.2,0.4l0.2,0c1.1,1.1-1.6-0.1,0.5,1.4c0.3,0.5,0.1-0.4,1,0.6c0.5,0.9-2-1-1.6-0.2
				c-0.1-0.1,0.1,0,0.3,0.2c-0.2,0.3-0.7,0.4-1.1,0.5c1.3,1.6-1.2,0.7,0.4,2.6c-0.6-0.7-0.9-0.6-1.2-0.8c0,0,0.2,0.1,0.3,0.2
				c0,0.2-0.8-0.3-1-0.5c0.4,0.6-1-0.2-0.6,0.2c-0.4-0.4-0.4-0.2-0.5-0.1c0.7,0.2,1,0.8,1.7,1.2c-0.1,0.5-2.1-1.2-2.1-0.6l0.6,0.9
				c-1.2-1-1.1-0.3-1.5-0.7c0.3,0.4,0.4,0.7,1,1.2c-0.5-0.1-0.1,0.7-0.8,0.1l-0.2-0.3c0.1,0.8-1.8-0.5-1.4,0.6l1.6,1.7
				c0.4,1-1.3-0.5-0.5,0.7c-0.5-0.7-0.3-0.6-0.9-1c0-0.2,0.6,0.1,0.7-0.1l-1.3-0.9l0.9,0.1c-0.8-0.6-0.7-0.3-1.2-1.1
				c-0.8-0.2,0.5,1.2-0.4,0.7c0.1,0.4,0.7,0.9,1,1.4c-0.8-0.3,0.6,1.7-0.4,1c0.2,0.2,0.2-0.1,0.5,0.4c-0.3-0.1-0.3,0.1-0.9-0.4
				l0-0.3c-0.1,0.2-0.7-0.5-0.6,0.1c-0.6-0.3-1.3-1-1.2-1.2c-0.2-0.1,0.1,0.5,0.6,1c-0.4,0.3-1.7-1.8-1.4-0.7c0.1,0,0.2,0.1,0.3,0.2
				c0,0.1-0.1,0.2-0.2,0.2c0.4-0.1,1,1.6,1.2,0.9c0.7,1-0.2,0.5,0,0.9c-0.7-0.5-1.2-1.4-1.6-1.8c0.3,0.2,0.2,0.3,0.2,0.5l-0.5-0.8
				c-0.1,0.1-0.1,0.2-0.4,0l0.4,0.2c-0.1,0.3,0.6,1.7-0.2,1.2c0.3,0.2,0.9,0.8,1,1.3c-0.7-0.2,0.1,0.3,0.4,1.1
				c-0.5,0-1.1-1.4-1.2-0.5c0,0.1-0.3-0.5-0.4-0.7c-0.1,0.6-0.6,0.2-0.6,1c0-0.3-0.1-0.6-0.6-0.9c0.5,0.6,0.2,0.7,0.3,1.3l0-0.5
				c0.2,0.5,0.4,0.7,0.6,0.7c-0.1-0.1-0.1-0.3,0-0.3c0.4,0.3,1.3,1.8,1.1,2.1c-0.6-0.2-1.2-1.2-1.4-1.7c-0.1,0.7-1.5-1.6-1.5-0.8
				c-0.1,0.1,0.6,1.8,0.4,2.2c-0.8-0.8,0-0.9-0.7-1.7c1,2.6-1.8-0.8-1.6,0.9l0.7,1.1c-0.1,0.2-0.3,0.4-0.5,0.3l-0.2-0.7
				c-0.3-0.2-0.5,0.2,0.1,1c-0.9-0.8-0.7-0.2-0.8,0.3c0.2-0.3-0.1-0.1,0.5,0.3c0,0.8-0.3,0.5-0.7,0.3c0.2,0.3,0.5,1,0.4,1.1
				c-0.6-0.6-0.9-0.3-1.4-0.5l0.2,0.3c-0.8-0.1-0.5,1.8-1.6,1l-0.1,0l0-0.1c-0.4-1.2-0.8-0.6-1.3-0.9c0.1,0.3,0.4,0.8,0.3,0.9
				c-0.5-1.1-0.4-0.5-0.7-0.9c-0.1,0.5,0.6,1.2,0.3,1.4c-0.2,0-0.4-0.6-0.6-1c0.2,0.6,0.2,1.2,0.1,1.3c0.3,0.2,0.1-0.1,0.2-0.1
				c0.3,0.6,0,0.4,0.4,1.1c-0.1,0.2-0.5-1-0.5-0.5l0.6,0.7c0,0.3-0.2,0-0.3-0.1c0.2,0.1,0.6,0.9,0.9,1.5c-0.7-0.4-1.2-2.2-1.7-3.1
				c-0.2,0.9-1-0.2-1.3,0l0.5,1c-0.3-0.1-0.5-0.3-0.7-0.6l-0.2-0.1c0.3,0.2,0.5,0.6,0.9,1.4c-0.5-0.2-0.7,0.3-1.3-1l0.1,0.2
				c-0.1,0.6-0.7,1.2-0.5,1.6c-0.6-0.3-0.7,0.7-1.3-0.6c-0.3-0.2,0.1,2.1-0.7,0.4c0.1,1,0.2,0.3,0.7,1.3c0,1-1.1-1.1-0.5,0.8
				c-0.6-0.4-0.1-0.4-0.6-1.2c0.6,1.8-0.5,0.5-0.4,1.7c-0.5-0.7-0.1-0.5-0.6-1.2c0.2,0.4,0.1,0.5,0.1,0.6l-0.5-1.1l0.8,3
				c-0.9-1.2-0.7-1.9-1.4-2.3l0.1,0.1c0.3,1.3-0.8-0.6-0.9,0.4c0.1-0.2,0.3,0.6,0.5,0.9l-0.8-0.3c0.1,0.1,0.2,0.2,0.1,0.3
				c0.1,0.9-0.3-0.4-0.3,0.5c0.3,0.2,0.5,1.1,0.5,1.5l-0.8-1.2l0.6,1.5c-0.3,0.2-1.7-2.1-1.1,0.1l0.3,0.2c0.1,0.4,0.3,1.6-0.2,0.9
				c-0.1-0.2-0.4-1.1-0.3-1.1l-0.1,0.4c0.4,1,1,1.2,1.4,1.4c-0.2-0.4-0.5-0.7-0.7-1.3c0.4,0.3,0.9,0.9,1.2,1.1
				c-0.2-0.4-0.4-1-0.7-1.4c0.1-0.7,0.5,0.6,0.7,0.6c0-0.4-0.1-0.7-0.2-1.1c0.4,0.4,0.7,0.3,0.8-0.3c0,0-0.5-0.7-0.6-1.3
				c0.7,0.4,1.2,1.6,2.1,2.2c1.3,1.5,0.8-1.5,1.7-0.4c0.2,0.4,0,0.9,0.4,1.1c-0.5-0.9-0.1-0.7-0.2-1.1c0.9,1.3,0.4-0.4,1,0.4
				c-0.2-0.2-0.1-0.7-0.1-1c-0.5-1.1,0.1-0.6-1-2c1.2,1.5,0.6-0.7,2,1.7l0,0.5l0.2-0.7l0,0c0.1-0.2,0.3,0.1,0-1.2
				c-0.3-0.2-0.4-0.2-0.6-0.4c-0.2-1.2,0.8,0.6,1.1,0.5c-0.4-0.8-0.4-0.2-0.7-1.1c0.1-0.2,0.6,0.3,0.8,0.5l-0.2-0.4
				c0-1.2,1.1,2.1,0.8,0.5c0.1,0.2,0.3,0.5,0.4,0.8c-0.1-0.5-0.2-1.4-0.7-1.8c0.1-0.1,0.5,0.2,0.8,0.6c0.2,0.7-0.1,0.4,0.3,1.3
				l0.9,0.2c0.1,0-0.2-0.3-0.3-0.4c-0.3-2.7,2.5,1.3,2-2c0.3,0.8,0.4,0.6,0.7,1c0.2-0.4,0.7-0.4,0.7-1l-0.3-0.5
				c1,0.3,1.8,0.8,2.1,0.3c0.1,0.1-0.4-0.7-0.6-0.8c0.8,0.6-0.4-2.3,0.7-0.5l0,0.2c0.4-0.6,1.9,0.3,2.6,0.2c-0.5-1.2-0.4,0-1.1-1.3
				c0.2-0.7,1.2,0,1.4-0.7c-0.1,0-0.2-0.2-0.3-0.2c0.1-1,0.6,1,0.9,0.7c-0.3-0.5-0.4-0.7-0.4-1l0.7,0.8c-0.1-0.1-0.5-0.8-0.7-1
				c0.8,1.1,0.8-0.1,1.7,0.9c-0.1-0.3-0.8-1.3-1-1.7c0-0.4,0.4,0,0.8,0.2l0,0c-0.4-0.9,0.1-1-0.1-1c0.1-0.6,0.4,0.6,1.1,1l0,1
				l0.6-0.1l-0.5-0.4c0-0.5,0.9,0.3,1.1,0l0.3,0.7l0.6,0.1c-0.9-1.3,0.2-0.6-1-1.9c0.1-1,1.6,0.3,2.2,0c-0.1,0.1-0.3-0.2-0.4-0.4
				c0.1-0.5,0.8,0,1.4,0.5c-0.3-0.4-0.5-0.4-0.8-0.7c0.3-0.2,0.7,0.5,1.4,0.6c-0.5-0.4-0.7-0.7-0.6-0.9c0.2,0.4,0.6,0.7,0.8,0.7
				c-2.2-2.1-0.4-1.4-2-3c0.4,0.5,1.8,1,2.5,2.1l-0.3-0.1c0.5,0.6,0.5,0.3,0.6,0.2c-0.2,0-0.4-0.2-0.5-0.3c1.3,0.3,1.2-0.9,2.3-0.9
				c-0.3-0.2-0.9-0.4-0.9-0.7c0.4-0.9,1.7,0,2.9-0.1c-1.3-1.4-0.8,0.4-2.1-0.9c0.9-0.4,1.9-0.5,3.3-0.5c-1.9-2.2,1.4,0,0.2-1.9
				c0.7,0.7,1.1,0.7,1.3,0.4c-0.6-0.4-0.5-0.7-0.9-1c0.9,0.4,1.6-0.1,0.2-1.2c1.4,1.1,0.3-0.6,1.4,0C67,45.6,68,46,67.8,45.3
				c0.9,0.9,0.7,0,1.2,0.1c-0.1,0.1-0.3,0-0.4-0.1c-0.7-0.6,1,0.1,0.7-0.5c-0.2-0.3-0.8-0.6-0.8-0.7c0.6,0.4,1.9,0.3,1.2-0.4
				c0,0.1-0.4-0.2-0.7-0.2c0.9-0.1,1.2-0.8,1.5-1.4c0.3-0.6,0.7-1.1,1.7-1.3l-1.2-0.4c-1.2-1.5,2.1,0.5,2.3-0.2c0.1-1,0-2-0.2-3.1
				c0-1,0-1.9,0.7-2.6c0.4,0,0.4,0.2,1,0.4c-0.1-0.2-1.1-0.6-0.4-0.6l0.7,0.2c-0.8-0.7-0.3-1.2,0-1.6c0.4-0.5,0.5-1-0.9-1.7
				c0.6-0.2,0.5-0.6,0.5-0.9c-0.1-0.3-0.1-0.7,0.8-1.1c-0.5-0.4-1.3,0.2-1.4-0.2c0.3-0.2,0.7-0.5,1.1-0.7l-0.1,0
				c1.2-0.3,0.6-0.9,0-1.5c-0.7-0.5-1.5-1.2-0.7-1.7L74,25.1c-0.5,0-1.1-0.2-1-0.4c0.4,0,0.6,0.1,1,0.2C74.9,24,75,23.8,75,23
				c-0.7,0.4-0.7-0.3-1.7-0.2c0.7-0.3,1.1,0,1.6-0.5c0-0.6-0.9-1.1-1.4-1.5c0.9-0.4,0.6-0.6,1.7-0.8c-0.1-0.7,0.2-1.2,0-2.1l-0.4,0
				c1.3-0.6-0.8-0.6-0.1-0.9c-0.4,0.2-0.6,0.3-1,0.4l0.3-0.6c-0.4,0.3-1.6,0.8-1.8,0.6c0.8-0.7,0.7-0.2,1.4-0.6l-1.3,0.3
				c0.1-0.3,1.4-0.9,1.8-0.7c-0.4-0.9-0.2-2-0.7-2.7l-0.7,0.5c0.1-0.5-0.2-1.1-1.1-0.9c0.2-0.2,0.5-0.5,0.8-0.6
				c0.7-1.2-1.2,0.6-0.4-0.6c-0.3,0.4-0.3,0.6-0.7,0.8l0.3-1.6c-0.6,0.3-2,0.7-1.9,0c0.2-0.3,0.8-0.4,0.9-0.4l0.1-0.4l-1.3,0.8
				c0.2-0.4,0.5-0.8,0.7-1.2l-1,0.8c0-0.4,1-1.7,0.9-1.8c-1.3-0.1-1.5,0.3-2.8,0.7c0.8-0.9,0.5-1.1,0.2-1.2S66.8,8.8,67.2,8
				c-0.9,0.5-1.4,0.3-1.9,0c-0.5-0.3-1-0.7-1.6-0.7l0,0.2c-1,0.8,0.2-1.8-0.5-1.6l-0.2,0.4c-1.2,0.8-1.8-0.6-2.2-1.7
				c0,0.4-0.2,1.1-0.4,1c0-0.5,0.6-1.5,0.1-1.2c0,0.3-0.1,0.8-0.2,0.8l-0.1-1.2c-1.2,0.5-2.3,1.2-3.2,0.4c-0.2,0.4-0.1,0.8-0.1,1.2
				c-0.7-0.3-1.4-1.4-2.1-1.6l0,1.4c-0.3,0-0.2-2.1-0.7-0.8c-0.1,0.2,0.3,0.1,0.4,0.7c-0.6,1-0.4-1.4-1-1.2l0.2,1.6
				c-0.5,0.9-0.6-0.8-0.8-1.7c-0.8-1.8-0.2,2.9-1.2,1.7c-0.3-0.8-0.1-1.1-0.4-1.8c-0.6,0.5-0.8-0.6-1.4,0c0.1,2.3,0.3,0,0.3,2.1
				l0.4-0.6c-0.2,1.3,0.4,0.3,0.5,1.6c-0.3,0.4-0.9-0.7-1.3-1c0.2,1,0.5,0,0.6,1.4l-0.2-0.4c0.1,0.3,0.2,0.7,0.3,0.7
				c0,1-0.2,0.2-0.4,0.1c-0.1-0.5-0.3-1.3-0.4-2c0.1,0.1,0,0.3,0,0.4c-0.7-1.4-1.1-0.1-1.7-1.2C48,5,48,5.1,48.1,5.4
				c-0.2,0.1-0.8-1.2-1.3-1.4c0,0.7,0.6,2.1,0.1,1.8C46.5,5,46.4,3.5,45.9,3.7L45.9,3.7z M56,5.5c-0.1-0.1-0.1-0.1-0.2-0.1
				C55.9,5.4,55.9,5.4,56,5.5L56,5.5L56,5.5z M56.9,5.6c-0.2,0.3-0.4,0.5-0.5,0.8c-0.1,0,0-0.4,0-0.8C56.7,5.7,56.8,5.6,56.9,5.6
				L56.9,5.6z M54.7,12.7L54.7,12.7c0.1,0.2,0.2,0.2,0.2,0.2c0,0.2-0.1,0.4-0.2,0.3C54.6,13.1,54.7,12.9,54.7,12.7z"/>
		</g>
		<g>
			<path class="st0" d="M34.3,62.3c0.1,0.3,0.4,1,0.5,0.8l-0.4-1.3L34.3,62.3L34.3,62.3z"/>
			<path class="st0" d="M36.2,64.1c-0.1-0.7-0.4-1.8-1-2.8c0.4,1.2,0.1,0.8,0.6,2.2c-0.1,0.2-0.4-0.3-0.6-0.7c0.1,0.3-0.3-0.2,0,0.6
				c0.6,0.9,0.8,0.8,0.7-0.1C36,63.6,36.1,63.9,36.2,64.1L36.2,64.1z"/>
			<path class="st0" d="M49.6,58.4l-0.2-0.1C49.5,58.4,49.6,58.4,49.6,58.4z"/>
			<path class="st0" d="M57.1,53.2c0,0.1,0,0.2,0.1,0.3C57.2,53.3,57.2,53.2,57.1,53.2z"/>
			<path class="st0" d="M59.3,53.1L59.3,53.1C59.3,53.2,59.4,53.2,59.3,53.1z"/>
			<path class="st0" d="M49.6,58.4l0.4,0.2C49.8,58.2,49.8,58.4,49.6,58.4z"/>
			<path class="st0" d="M36.5,60.4v0.2C36.6,60.5,36.6,60.5,36.5,60.4z"/>
			<path class="st0" d="M47,61.6L47,61.6c0,0.2,0.1,0.3,0.2,0.5L47,61.6z"/>
			<path class="st0" d="M44.5,63.5c0.1,0-0.5-1-0.7-1.4c0.2,0.4,0.3,0.6,0.3,0.7C44.1,63,44.3,63.2,44.5,63.5L44.5,63.5z"/>
			<path class="st0" d="M49,60.5c0.1,0.1,0.2,0.3,0.3,0.3C49.1,60.7,49,60.6,49,60.5z"/>
			<path class="st0" d="M43,15.2c0-0.1-0.1-0.1-0.1-0.2C42.9,15.1,43,15.2,43,15.2z"/>
			<path class="st0" d="M37,13L37,13c-0.2-0.2-0.3-0.4-0.4-0.5L37,13z"/>
			<path class="st0" d="M62.5,52C62.5,52,62.4,52,62.5,52C62.5,52.1,62.5,52.1,62.5,52z"/>
			<path class="st0" d="M73.9,26c-1,0.3-1.3-0.6-2.4-0.2C71.9,25.8,73.2,26.4,73.9,26z"/>
			<path class="st0" d="M66.4,46.1c-0.2-0.1-0.3-0.2-0.4-0.2C66.1,45.9,66.2,46,66.4,46.1z"/>
			<path class="st0" d="M62,49.2h0.2C62.1,49.1,62,49.1,62,49.2z"/>
			<path class="st0" d="M66.6,43c0.1,0,0.3,0,0.2-0.1C66.7,42.9,66.7,42.9,66.6,43C66.8,42.9,66.8,43,66.6,43z"/>
			<path class="st0" d="M68,40.6c-0.1,0-0.2,0-0.2-0.1v0.1H68z"/>
			<path class="st0" d="M48.3,11.7c-0.2-0.3-0.3-0.6-0.4-0.9C48.2,11.5,48,11.9,48.3,11.7z"/>
			<path class="st0" d="M36.8,61c-0.1-0.3-0.2-0.4-0.2-0.5v0.1C36.7,60.8,36.8,60.9,36.8,61L36.8,61z"/>
			<path class="st0" d="M59.2,38.2l0.3-0.2C59.3,38,59.2,38,59.2,38.2z"/>
			<path class="st0" d="M60.8,13l-0.1,0.1L60.8,13z"/>
			<path class="st0" d="M59.9,37c0.4,0.1,0.6,0.2,0.8,0.2L60.5,37H59.9z"/>
			<path class="st0" d="M75,24.6L73.8,25c-1.3-0.7,2.1-0.6,0.8-1.4l0.8,0.2c-0.5-0.4-0.1-1.5-2-1.7c0.3-0.1,0.9-0.2,1.1-0.1
				c0.1-0.5-0.5-1-0.9-1.4c-0.5-0.4-0.8-0.8-0.3-1.3h0.6c-0.2-0.1-1.2-0.1-0.6-0.4c0.2,0,0.6,0,0.6-0.1c-0.2-0.1-1.1-0.2-0.8-0.5
				h0.7c0.5-1.1-1.9-1-2.5-1.5c1.7-0.5,2.1-1.3,2.2-1.8l0.2-0.1c-0.2-1.1-2-1.3-3.1-1.9c0.8-0.7,0.7-1.3,0.5-1.8
				c-0.2-0.6-0.6-1.1-0.4-1.9c-0.2,0.3-1.2,0.7-1.4,0.7c-0.1-0.7-1.6-0.1-0.3-1v0.1c1.2-1.1,0.5-1.3,0.3-1.6l-1.7,1.3
				c0.8-1.3,0.2-1.8-0.5-2c-0.7-0.2-1.3-0.3-0.7-1.6c-0.6,0.2-0.8,0-1.3,0.3l0.7-0.9c-0.4-0.7-0.7-1-1.6-1.3l0.6-0.6
				c-0.5-0.3-2.2,2.5-2.6,2.4l0.7-1.6c-0.4-0.2-0.6-0.7-1-1c-0.3-0.3-0.8-0.5-1.5,0.1c0.1-0.2,0.3-0.7,0.4-0.7
				c-0.4-0.2-1.2-1.5-1.6,0.4c0.1-1-0.9-0.1-1.5,0.5L58,1.7c-0.7,1.3-0.7,1.7-1.3,2c-0.1-0.2,0-0.7,0-0.7c-0.3-0.3-0.4,1-0.7,0.5
				l0.3-0.7c-0.4-0.1-0.4,0.3-0.7,1c-0.3,0.4-0.7-0.3-0.7-1.3c-0.1,0.6-0.3,1.4-0.5,1.1c0-0.4,0.1-0.6,0.1-0.7
				c-0.7-0.8-1,1.3-1.4,0.2c0-0.4-0.1-0.5-0.1-0.7c0.5,0,1,0.1,0.9,0.2c0-1-0.5-1.2-0.1-2.6c-0.4,0.8-0.9,2.5-1.4,2
				c0-0.1,0-0.2-0.1-0.4V1.5c-0.1-0.1-0.2,0-0.3,0.2c-0.1-0.1-0.1-0.1-0.2-0.2c-0.1,0-0.1,0.1-0.2,0.2v0.1c-0.1-0.2-0.1-0.4-0.1-0.6
				c0,0,0-0.1,0.1-0.1C51.5,0.7,51.1,1,50.9,1c0.2,1.1-0.1,1,0.2,1.9c0-0.1,0.1-0.1,0.2-0.2l0.1-0.1v0.1c0.1,0,0.3-0.1,0.5-0.1
				c-0.1,0.6-0.2,1.1-0.5,0.5v1.8c-0.5-1.5-1.2-2.3-1.4-3.2c-0.5,0.7-1.5,0.7-1.3,2.9c-0.1,0.3-0.3-0.5-0.5-0.8
				c0-0.2,0.2-0.2,0.2-0.5c-0.2,0.6-1,0.5-0.7,1.9c-0.6-0.5-0.2-1.4-0.7-1V3.7c-1-1-1.2,0.1-1.3,1.1c-0.2,0.9-0.3,1.8-1.3,0.9
				c0,0.1,0.1,0.1,0.1,0.2c-0.9-0.3-1.5,0.3-2.1,0.8c-0.6,0.5-1.1,1-2.3,0.5c-0.6-0.1-0.1,0.7,0.1,1.4l-0.7-1L39.9,9
				c0,0.6-0.6,0.1-1.2-0.2c-0.6-0.3-1.2-0.6-0.9,0.4l0.6,0.6c-0.3,0-0.4,0.9-0.9,0.2c0.1,0.1,0.5,0.7,0.1,0.4L37,10l0.2,1.3
				c-0.7,0-1.6-1.9-2.3-1.5c-0.1,0.4,0.6,1.9,1,2.1c0.1-0.1,0.5,0.1,0.9,0.6v0.4c1.2,1.4,2.5,2.9,3.7,3.5L40,15.3l0.7,0.6l-0.2,0.2
				c0.7,0.5,0.3-0.1,0-0.6c0.3,0.3,0.6,0.6,0.8,0.6l-0.9-1.6c0.5,0.5,0.8,1.2,1.3,1.4c-0.4-0.7-1.2-1.1-1.3-1.7
				c0.7,0.5,1.1,1.1,0.8,0.4c0.3,0.4,0.5,0.6,0.6,0.8c-0.2-0.6,0.2-0.5-0.3-1.3c0.8,0.7,0.3-0.6,1.4,0.8c-0.2-0.4-0.6-1.3-0.5-1.4
				c1,1.9,0.6-0.3,1.8,1.7c-0.9-1.7,0.2-1.1-0.1-2.2c0.1,0.1,0.2,0.4,0.1,0.4c0.3,0,0.6,0.5,0.9,0.7c-0.8-1.4-0.7-1.8-1-2.8
				c1,1.2,0.8,1.7,1.5,2.9c-0.6-1.1-0.2-1.3-0.8-2.2c0.6,0.7,0.4,0.3,1.1,1.4c-0.9-1.8,0-0.4-0.4-1.5c0.7,0.7,0.9,1.6,0.9,0.9
				c0.4,0.5,0.5,1.2,0.5,1.3c0.3-0.1-0.5-1.4-0.8-2.2c0.2-0.5,0.6,0.9,1.1,1.5c0-0.4-0.3-1.8-0.2-1.8c0.1,0.2,0.2,0.3,0.3,0.6
				c-0.2-1.2,0.7-0.3,0.4-1.8c0.1,0.1,0.1,0.2,0.2,0.3c0-0.1-0.1-0.1-0.1-0.2C48,10,48,8.8,48.4,9c0.5,1.3-0.4,0.6,0.3,1.7l-0.5-0.4
				c1,1.9-0.3-0.1,0.7,2c0.5,0.2,0.3-0.8,0.8-0.6c-0.1-0.8-0.3-1.1-0.5-1.8c0.3-1.5,1.4,3.2,1.4,1.3c-0.1-0.9-0.4-2.6,0.1-1.8
				l0.2,1.5c0.4,0.1-0.2-2.2,0.5-1.3c0,0.6-0.3,0.6-0.2,0.7c0.5,1.1,0-0.9,0.3-0.9l0.3,1.3c0.4-0.3,0.8-1.3,1.3-1.6
				c0,0.4-0.1,0.8,0.1,1.2c0.6-0.7,1.3,0.1,1.8,1l0.3-1.2v0.8c0.2,0.5,0.1-0.7,0.2-1.2c0.1-0.1,0.1,0.7,0,1c0.5-1,1.5-1.9,1.6-0.6
				l-0.2,0.3c0.2,0.5,1-2.2,1-1.1l-0.1,0.2c0.3,0.4,0.7,0.3,1,0.5s0.5,0.4,0.3,1.4c0.4-0.7,0.5-0.5,0.6-0.3c0.1,0.2,0.2,0.3,0.8-0.7
				c-0.3,1.2-0.6,1.5-0.8,2.4c0,0.2,1.1-1,1.4-1.1l-0.8,0.9c0.3-0.3,0.7-0.6,1-0.8L60.4,13l0.3-0.1c0-0.1,0.3-0.5,0.5-0.8
				c0.6-0.2-0.1,1.1-0.6,1.5l1.2-0.3c-0.4,0.3-0.6,0.3-0.9,0.5c1.2-0.6-1,0.9,0.1,0.3c0.2-0.2,0.6-0.4,0.8-0.6
				c-0.5,0.6-0.3,0.8,0.1,0.9L61.1,15c0,0.5,0.8,0.5,1,1c0.3-0.3,1.6-1,1.8-0.9l-0.2,0.1c0.1,0,0.2-0.1,0.4-0.1
				c0,0.3-1.3,0.8-1.7,0.9H63c-0.3,0.2-0.6,0.2-1,0.4c0.7-0.3-0.7,0.7,0,0.6l-0.1,0c0.2,0.5,0.7,0.5,0.9,0.9
				c1.1-0.4,0.9-0.1,1.8-0.3c-0.2,0.5-1,1.1-0.8,1.5c0.6,0.1,0.9-0.1,1.6-0.2c-1,0.3-0.8,0.7-1.6,0.6c0.3,0.5,0.4,0.6,1.3,1.1
				c0.4-0.1,0.6-0.3,0.9-0.3c0.2,0.1-0.4,0.4-0.9,0.4H65c0.8,0.3,0.1,0.8-0.5,1.3s-1.2,0.9-0.1,1.1h-0.1c0.4,0.2,0.8,0.4,1.1,0.6
				c-0.2,0.3-0.8-0.1-1.4,0.1c0.9,0.3,0.8,0.6,0.7,0.8c-0.2,0.2-0.4,0.5,0.2,0.8c-1.5,0.1-1.5,0.5-1.3,0.9c0.1,0.4,0.4,0.8-0.6,1
				l0.7,0.1c0.7,0.3-0.4,0.1-0.6,0.2c0.5,0.1,0.7,0,1,0.1c0.4,0.7-0.1,1.3-0.7,1.8c-0.6,0.5-1.4,1-1.9,1.4c-0.3,0.4,3.4,1.4,1.6,1.5
				l-1.2-0.6c0.6,0.7,0.4,1.2,0.2,1.6c-0.2,0.4-0.5,0.9-0.1,1.6c-0.3-0.2-0.6-0.3-0.6-0.4c-1-0.2-0.4,0.6,0.3,1
				c-0.2,0.1-0.7-0.3-1-0.4c-0.6-0.1,0.9,1,0,0.7c-0.1,0-0.1-0.1-0.2-0.1c0,0.2-0.3,0.4,0.6,0.7c-0.7,0.1,0.1,0.8-0.6,0.8
				c1,0.8-0.8,0.2,0.7,1.2c-1.5-0.9-1.6-0.2-1,0.5c-0.4-0.4-0.6-0.1-1.2-0.6c-0.1,0.2,0,0.6,0.8,1.1c-2.1-0.8,0.9,1.8-1.5,0.5
				c0.3,1.2,0.4,2.2,0.3,3.1c-1.4-1.1,0.3-0.8-1.2-1.9c0.2,1,1.2,2.3,0.4,2.5c-0.3,0-0.5-0.6-0.7-0.8c0.1,1-1,0.9-0.6,2
				c-0.1-0.1-0.2-0.3-0.3-0.4c0,0.1-0.4,0,0.2,0.6l-0.1-0.2c1,0.6,1.5,2,2,2.5c-1.6-1.7-0.9,0.1-2.8-2.2c0.1,0.2,0.3,0.5,0.7,0.9
				c-0.2,0-0.5-0.2-0.8-0.7c0,0.6,0.8,1.1,0.5,1.4c-0.3-0.3-0.3-0.4-0.7-0.8c0.4,0.7,0.8,1.4,0.3,1.4c-0.2-0.2-0.4-0.4-0.3-0.4
				c-0.3,0,0.8,1.7-0.2,1.6c-1.1-1.4-0.5-0.3-1.6-1.3v0.5l0.6,0.4c-0.2,0.2,0.3,1.2-0.2,1l-0.3-0.6l-0.2,0.6l0.6,0.2
				c0.3,0.8,1.3,1.4,0.7,1.3c0-0.2-0.3,0.2-1-0.3c0.2,0.5,0.4,1,0,0.8c-0.4-0.3-1-1.3-1.3-1.5c0.7,1-0.3,0.8,0.4,1.9
				c-0.2-0.3-0.7-0.9-0.8-1l0.6,0.9c-0.3-0.2-0.4-0.3-0.8-0.8c-0.5,0.1,1.3,1.3,0.4,1.1c0-0.1-0.1-0.2-0.2-0.4
				c-0.7,0-0.4,1.2-1.1,1.1c-1.1-1.1,0.1-0.5-0.8-1.4c-0.4,0.6,0,2.3-0.7,2.5h0.2c1.2,1.7-1-0.5-0.7,0.5c0-0.2-0.6-1-0.5-0.8
				c-0.6,0-0.4,1-0.6,1.9l-0.3-0.5c-0.5-0.2-0.7,0.2-1.1,0.2c0.3,0.5,0.1,0.5,0.6,1.1c-2.5-2-0.5,2.4-2.6,0.7
				c0.1-0.1-0.1-0.5-0.2-0.5L43.8,57c0.6,0.7,0.4,0.4,0.9,0.9c0.2,0.5,0.3,1,0.2,1.1c-0.1-0.7-0.8-1.2-1.2-1.6
				c0.2,0.2,0.3,0.5,0.5,0.7c-1.2-1.2,1,1.6,0,0.9L44,58.6c0,0.3,0.2,0.9-0.1,0.9c-0.7-0.8-0.1-0.5-0.6-1.3c-0.2,0.2,0.6,2-0.2,1.2
				c-0.1-0.3,0.1-0.4,0-0.7c-0.9-0.9-0.8-0.6-1-0.7h-0.6l0.3,0.2c1.2,2.5-0.3,0.8,0.2,2.6c-0.5-1.7-0.5-0.9-1-2
				c-0.3-0.2-0.6-0.5-0.8-0.8c0.3,1-0.7-0.5-0.2,0.9c-0.2-0.3-0.2,0.1-0.7-0.8c-0.1,0.4,0.4,0.5,0.6,1c0.3,1.4-1.7-0.9-1.3,1
				c-0.1,0.9,0.4,2.1,0.3,3c-0.4-0.5-0.5-1.3-0.5-1.3c-0.5-0.4-0.6-0.2-0.7,0.3c-0.1-0.3-0.3-0.6-0.5-0.9c-0.1,0.2,0.5,1.3,0,0.9
				c-0.2-0.4-0.4-1.1-0.5-1.5v1.6c-0.3-0.6-0.3-1-0.4-1.4c-0.1,0.2-0.2,0.5-0.2,0.9c0.1-0.3,0.5,0.5,0.7,0.8l-0.1,0.3
				c1.2,2,0.5-0.7,0.9-0.7l0.6,1.6l-0.3-1.4c0.3,0.3,0.7,1.2,0.7,1.5c0.6,0.6-0.1-0.6,0.6,0.1c0.1,0.1,0.1,0.2,0.1,0.3v-0.6
				c0.1,0.3,0.6,1,0.3,0.9c0.9,0.6,0.1-1.5,0.9-0.4v0.1c0.3-0.8-0.5-1.1-0.8-2.6l1.8,2.5L41,63c0.1,0,0.2,0,0.5,0.5
				c-0.2-0.9-0.3-0.4-0.6-1.2c0.8,0.8,0.5-0.9,1.6,0.7c-0.4-0.9-0.6-0.5-0.7-1.2c1.2,1.8,0.2-0.5,0.9,0.2c0.5,1-0.1,0.6,0.7,1.3
				c-0.8-1.7,0.7,0,0.8-0.4c-0.8-1.2,0.2-0.8,0.3-1.5c0.2,0.4,1.1,0.2,1.7,0.5l0.1,0.2c-0.7-1.3-0.3-1.3-0.2-1.7
				c0.5,0.7,0.6,1,0.7,1.5l0.2-0.2c-0.2-0.4-0.3-0.7-0.2-0.9l0.6,1c0.3-0.3-0.1-1.5,0.7-1.2c-0.6-0.8-2-2.1-1.9-3
				c0.3,0.4,0.9,1.2,0.9,1.5c0-0.1-0.1-0.5,0.1-0.3l0.4,0.9c0.4,0.2-0.3-0.7-0.2-0.7c0.5,0.7,0.4,0.4,0.8,0.9c0,0.1-0.3-0.2-0.2,0.1
				c0.2,0,0.7,0.2,1.1,0.7c-0.3-0.4-0.6-0.9-0.6-1c0.3-0.3,0.7,0.7,1.1,0.9c-0.3-0.5,0.3-0.2-0.4-1.1c0.1-0.1,0.4,0.4,0.7,0.6
				c0-0.1,0-0.2,0-0.3c0-0.3,0-0.6,0-0.9c-0.1-0.1-0.2-0.2-0.3-0.3h-0.1v-0.1c-0.1-0.7,0.4-0.7,0.9-0.7c0.2-0.3,0.4-0.5,0.6-0.8
				c0.2-0.2,0.4-0.4,0.6-0.6c0-0.1,0-0.1-0.1-0.2c0,0,0.1,0,0.2,0.1c0.6-0.6,1.2-1.3,1.9-1.9c0.8-0.6,1.6-1.1,2.4-1.8
				c0-0.1,0-0.2,0-0.2c0.1,0,0.2,0,0.3,0.1c1-0.8,1.8-1.8,2.9-2.6c0.3-0.5,0.7-1.1,1-1.6c1.2-2,2.4-3.8,3.8-5.4c0.9-1.4,2-2.7,3-4.2
				c0.1-0.1,0.1-0.2,0.2-0.3c-0.2-0.2-0.3-0.3,0-0.4c0.1,0,0.1,0,0.2,0c0.5-0.8,1-1.6,1.5-2.3c-0.1-0.3-0.2-0.6-0.3-0.8
				c-0.2-0.1-0.3-0.2-0.3-0.3c0.4,0.1,0.7,0.1,1.2,0.1c0.2-0.4,0.5-0.7,0.8-1.1c-0.1-0.1-0.2-0.3-0.1-0.4l-0.5-0.1
				c-1.4-0.8,0.9,0-0.1-0.7l1.4,0.3c0,0,0,0,0.1-0.1c-0.4-0.4-1.2-1.2-1.4-1.6c0.9,0.4,1.4,0.9,1.8,1.3c0.1-0.1,0.2-0.1,0.4-0.2
				c-0.1-0.2-0.3-0.4-0.7-0.6c0.1,0.1,0.5,0.3,0.2,0.4c-1.1-0.6-1.7-1.1-1.5-1.5c3,0.7,1-1,3.4-1c-0.5-0.5-0.3-0.9,0-1.4
				c0.3-0.4,0.7-0.9,0.7-1.4c-2.4,0.2-0.1-0.3-2.5-0.4c-0.1-0.2-0.1-0.3,0.1-0.3l1.5-0.6c0.7-0.1,0.5,0.3,1.1,0.3
				c0.2-0.5,1.1-0.2,1.7-0.5C75,25.1,74.7,24.9,75,24.6z M47.8,10.4c-0.3-0.6-0.5-1.2-0.7-1.6c0.1-0.1,0-1,0.3-0.1
				c-0.1,0,0,0.4,0.1,0.7V9C48.1,10.3,47.5,9.6,47.8,10.4z M53.4,8.9V8.1c0,0.2,0.2,0.4,0.3,0.8C53.6,8.9,53.5,8.8,53.4,8.9z"/>
			<path class="st0" d="M53,8.9L53,8.9C53,9,52.9,9,52.9,9S53,9,53,8.9L53,8.9z"/>
			<path class="st0" d="M51.4,2.7C51.4,2.7,51.4,2.8,51.4,2.7c0,0.2,0,0.3,0.1,0.3C51.4,2.9,51.4,2.8,51.4,2.7L51.4,2.7z"/>
			<path class="st0" d="M60.1,13l0.2-0.2L60.1,13z"/>
			<path class="st0" d="M43.8,57.6c-0.1-0.1-0.1-0.2-0.2-0.2C43.6,57.4,43.7,57.5,43.8,57.6z"/>
			<path class="st0" d="M42.2,58.3l-0.4-0.2C42,58.3,42.1,58.3,42.2,58.3z"/>
			<path class="st0" d="M40.7,58.6c0.1,0.2,0.2,0.3,0.2,0.4l0,0L40.7,58.6z"/>
			<path class="st0" d="M56.2,44.3C56.2,44.3,56.2,44.2,56.2,44.3C56.1,44,56.2,44.1,56.2,44.3z"/>
			<path class="st0" d="M53.7,50.5c-0.1-0.2-0.2-0.4-0.2-0.5C53.4,50,53.4,50.2,53.7,50.5z"/>
			<path class="st0" d="M53.7,49.8c-0.2-0.1-0.3,0-0.2,0.2C53.6,50,53.8,50,53.7,49.8z"/>
			<path class="st0" d="M35.5,60.8L35.5,60.8C35.4,60.8,35.5,60.9,35.5,60.8L35.5,60.8z"/>
			<path class="st0" d="M35.4,61.5v-0.3C35.4,61.1,35.3,61.2,35.4,61.5z"/>
			<path class="st0" d="M37.2,60.5L37,60.1C37.1,60.2,37.2,60.4,37.2,60.5z"/>
			<path class="st0" d="M37.7,60.2c-0.2,0-0.7-0.6-0.7-0.3l0.1,0.3C36.9,59.6,37.9,60.8,37.7,60.2z"/>
			<path class="st0" d="M42.1,63.5h-0.6c0.3,0.3,0.7,0.8,0.5,1C43.3,65.2,41.5,63.6,42.1,63.5z"/>
			<path class="st0" d="M43.8,63.2c-0.1,0.3,0.3,0.5,0.5,0.8C44.2,63.7,44,63.4,43.8,63.2z"/>
			<path class="st0" d="M52.7,57l0.6,0.8C53.3,57.5,53,57.5,52.7,57z"/>
			<polygon class="st0" points="50.9,51.6 50.3,51.2 50.9,52 			"/>
			<path class="st0" d="M68.6,41.5l-1.1-0.6C67.6,41.2,68.8,41.9,68.6,41.5z"/>
			<path class="st0" d="M70.8,33.3c0.6,0.1,1.1,0,0.5-0.3C71.2,33.1,70.7,33.1,70.8,33.3z"/>
			<polygon class="st0" points="68.6,7.3 69.1,7.2 68.5,7.1 			"/>
		</g>
	</g>
	<g>
		<path class="st1" d="M70.1,36.2c0.8-0.1,1.1-0.5,0.9-1.2c-0.7-1.3-1.6-2.3-2.9-3c-2.1-1.6-4.2-3.1-6.4-4.5
			c-1.1-0.9-2.4-1.5-3.8-1.7c-0.8,0.1-1.1,0.5-0.9,1.2c0.7,1.3,1.6,2.3,2.9,3c2.1,1.6,4.2,3.1,6.4,4.5C67.5,35.5,68.7,36,70.1,36.2z
			"/>
		<path class="st1" d="M60.3,29.5c0.7-0.1,1-0.5,0.9-1.2c-0.5-1.1-1.2-2-2.3-2.6c-1.7-1.3-3.5-2.6-5.3-3.7c-0.9-0.8-2-1.2-3.2-1.3
			c-0.7,0.1-1,0.5-0.9,1.2c0.5,1.1,1.2,2,2.3,2.6c1.7,1.3,3.5,2.6,5.3,3.7C58,29,59.1,29.4,60.3,29.5z"/>
		<path class="st1" d="M65.1,19.8c0.7,0,1.9-0.9,2-1.6c0.1-0.6-0.7-1.7-1.4-1.7s-1.9,0.9-2,1.6S64.4,19.8,65.1,19.8z"/>
		<path class="st1" d="M68.3,25.4c0.9,0.2,1.3-0.1,1.1-1c-0.6-1.7-1.6-3.2-2.9-4.5c-2.2-2.6-4.4-5.1-6.8-7.6
			c-1.1-1.5-2.5-2.6-4.1-3.4c-0.9-0.2-1.3,0.1-1.1,1c0.6,1.7,1.6,3.2,2.9,4.5c2.2,2.6,4.4,5.1,6.8,7.6
			C65.4,23.5,66.7,24.6,68.3,25.4z"/>
		<path class="st1" d="M72.3,18.2c1,0,1.8-1.1,1.5-2c-0.3-1-1-2.1-2.1-2.1c-1,0-1.8,1.1-1.5,2C70.5,17.1,71.2,18.2,72.3,18.2z"/>
		<path class="st1" d="M57.6,27.9c0.7,0,1.6-1.5,1.5-2.1c-0.2-0.8-1.5-1.6-2.2-1.6s-1.6,1.5-1.5,2.1C55.5,27.2,56.8,27.9,57.6,27.9z
			"/>
		<path class="st1" d="M63.5,38c1.5,0,2.2-1.1,1.1-2.3c-1.1-0.9-2.4-1.6-3.7-2.2c-1.3-0.7-2.6-1.2-4-1.6c-1.5,0-2.2,1.1-1.1,2.3
			c1.1,0.9,2.4,1.6,3.7,2.2C60.8,37.1,62.2,37.6,63.5,38z"/>
		<path class="st1" d="M74.4,24.6c0.8,0.3,1.2,0,1.3-0.8c-0.2-1.5-0.7-2.9-1.6-4.1c-1.4-2.4-2.9-4.8-4.5-7.1c-0.7-1.4-1.7-2.5-3-3.3
			c-0.8-0.3-1.2,0-1.3,0.8c0.2,1.5,0.7,2.9,1.6,4.1c1.4,2.4,2.9,4.8,4.5,7.1C72.2,22.7,73.2,23.8,74.4,24.6z"/>
		<path class="st1" d="M60.6,23c0.9,0,1.9-1,1.8-1.9c-0.1-0.8-1.7-2.5-2.6-2.5s-1.9,1-1.8,1.9C58.1,21.4,59.7,23,60.6,23z"/>
		<path class="st1" d="M65.9,19.1c2.4,0,0.5-2.9,0-3.7c-1-1.5-2.2-2.9-3.4-4.3c-0.6-0.9-1.4-1.5-2.4-1.7c-2.4,0-0.5,2.9,0,3.7
			c1,1.5,2.2,2.9,3.4,4.3C64.1,18.3,64.8,18.8,65.9,19.1z"/>
		<path class="st1" d="M73.6,30.9c3.2,0-1.1-4.8-1.4-5.1c-1.9-2.4-4-4.7-6.1-7c-1-1.4-2.3-2.4-3.8-3.1c-3.2,0,1.1,4.8,1.4,5.1
			c1.9,2.4,4,4.7,6.1,7C70.8,29.2,72.1,30.2,73.6,30.9z"/>
		<path class="st1" d="M58.5,32.8c0.9,0,1.6-1.5,1.3-2.2c-0.4-0.9-2.2-1.8-3.1-1.8s-1.6,1.5-1.3,2.2C55.7,31.9,57.5,32.8,58.5,32.8z
			"/>
	</g>
	<g>
		<path class="st1" d="M70.1,36.2c0.8-0.1,1.1-0.5,0.9-1.2c-0.7-1.3-1.6-2.3-2.9-3c-2.1-1.6-4.2-3.1-6.4-4.5
			c-1.1-0.9-2.4-1.5-3.8-1.7c-0.8,0.1-1.1,0.5-0.9,1.2c0.7,1.3,1.6,2.3,2.9,3c2.1,1.6,4.2,3.1,6.4,4.5C67.5,35.5,68.7,36,70.1,36.2z
			"/>
		<path class="st1" d="M60.3,29.5c0.7-0.1,1-0.5,0.9-1.2c-0.5-1.1-1.2-2-2.3-2.6c-1.7-1.3-3.5-2.6-5.3-3.7c-0.9-0.8-2-1.2-3.2-1.3
			c-0.7,0.1-1,0.5-0.9,1.2c0.5,1.1,1.2,2,2.3,2.6c1.7,1.3,3.5,2.6,5.3,3.7C58,29,59.1,29.4,60.3,29.5z"/>
		<path class="st1" d="M65.1,19.8c0.7,0,1.9-0.9,2-1.6c0.1-0.6-0.7-1.7-1.4-1.7s-1.9,0.9-2,1.6S64.4,19.8,65.1,19.8z"/>
		<path class="st1" d="M68.3,25.4c0.9,0.2,1.3-0.1,1.1-1c-0.6-1.7-1.6-3.2-2.9-4.5c-2.2-2.6-4.4-5.1-6.8-7.6
			c-1.1-1.5-2.5-2.6-4.1-3.4c-0.9-0.2-1.3,0.1-1.1,1c0.6,1.7,1.6,3.2,2.9,4.5c2.2,2.6,4.4,5.1,6.8,7.6
			C65.4,23.5,66.7,24.6,68.3,25.4z"/>
		<path class="st1" d="M72.3,18.2c1,0,1.8-1.1,1.5-2c-0.3-1-1-2.1-2.1-2.1c-1,0-1.8,1.1-1.5,2C70.5,17.1,71.2,18.2,72.3,18.2z"/>
		<path class="st1" d="M57.6,27.9c0.7,0,1.6-1.5,1.5-2.1c-0.2-0.8-1.5-1.6-2.2-1.6s-1.6,1.5-1.5,2.1C55.5,27.2,56.8,27.9,57.6,27.9z
			"/>
		<path class="st1" d="M63.5,38c1.5,0,2.2-1.1,1.1-2.3c-1.1-0.9-2.4-1.6-3.7-2.2c-1.3-0.7-2.6-1.2-4-1.6c-1.5,0-2.2,1.1-1.1,2.3
			c1.1,0.9,2.4,1.6,3.7,2.2C60.8,37.1,62.2,37.6,63.5,38z"/>
		<path class="st1" d="M74.4,24.6c0.8,0.3,1.2,0,1.3-0.8c-0.2-1.5-0.7-2.9-1.6-4.1c-1.4-2.4-2.9-4.8-4.5-7.1c-0.7-1.4-1.7-2.5-3-3.3
			c-0.8-0.3-1.2,0-1.3,0.8c0.2,1.5,0.7,2.9,1.6,4.1c1.4,2.4,2.9,4.8,4.5,7.1C72.2,22.7,73.2,23.8,74.4,24.6z"/>
		<path class="st1" d="M60.6,23c0.9,0,1.9-1,1.8-1.9c-0.1-0.8-1.7-2.5-2.6-2.5s-1.9,1-1.8,1.9C58.1,21.4,59.7,23,60.6,23z"/>
		<path class="st1" d="M65.9,19.1c2.4,0,0.5-2.9,0-3.7c-1-1.5-2.2-2.9-3.4-4.3c-0.6-0.9-1.4-1.5-2.4-1.7c-2.4,0-0.5,2.9,0,3.7
			c1,1.5,2.2,2.9,3.4,4.3C64.1,18.3,64.8,18.8,65.9,19.1z"/>
		<path class="st1" d="M73.6,30.9c3.2,0-1.1-4.8-1.4-5.1c-1.9-2.4-4-4.7-6.1-7c-1-1.4-2.3-2.4-3.8-3.1c-3.2,0,1.1,4.8,1.4,5.1
			c1.9,2.4,4,4.7,6.1,7C70.8,29.2,72.1,30.2,73.6,30.9z"/>
		<path class="st1" d="M58.5,32.8c0.9,0,1.6-1.5,1.3-2.2c-0.4-0.9-2.2-1.8-3.1-1.8s-1.6,1.5-1.3,2.2C55.7,31.9,57.5,32.8,58.5,32.8z
			"/>
	</g>
	<g>
		<path class="st1" d="M43.4,30.4c-1.3,3.5-2.5,7-3.8,10.5c-0.7,1.9,1.6,1.9,2.7,1.8c1.5-0.2,2.9-0.5,4.3-0.9
			c0.9-0.1,1.6-0.5,2.1-1.2c1.3-3.3,2.6-6.6,3.9-9.9c0.7-1.9-1.4-2-2.6-2c-1.5,0.1-3,0.3-4.5,0.6C44.6,29.4,43.9,29.8,43.4,30.4z"/>
		<path class="st1" d="M35.6,23c-1.3,3.6-2.5,7.1-3.8,10.7c-1.1,3.2,5.6-0.3,5.6-0.3c3-1.4,6-2.9,8.9-4.5c1.7-0.7,3.1-1.7,4.2-3.1
			c1.3-3.3,2.7-6.6,4-9.8s-5.6,0-5.6,0c-3,1.3-6,2.6-9,4.1C38.3,20.8,36.8,21.7,35.6,23z"/>
		<path class="st1" d="M34.1,10.2c-1.2,3.4-2.3,6.9-3.5,10.3c-0.4,1.1,0.8,2.1,1.9,1.8c0.8-0.5,1.6-1.1,2.2-1.8
			c0.7-0.7,1.3-1.4,1.7-2.3c1.2-3.3,2.3-6.7,3.5-10c0.4-1.1-0.8-2.1-1.8-1.9c-0.8,0.4-1.6,1-2.2,1.7C35.2,8.7,34.6,9.4,34.1,10.2z"
			/>
		<path class="st1" d="M45.5,19.6c-1.3,3.5-2.5,7-3.8,10.6c-1,2.8,4.4,0.4,4.7,0.3c2.4-1,4.8-2.1,7.1-3.4c1.4-0.5,2.5-1.3,3.4-2.5
			c1.3-3.3,2.6-6.6,3.9-10c1.1-2.8-4.3-0.6-4.6-0.5c-2.4,0.9-4.8,2-7.2,3.1C47.5,17.7,46.4,18.5,45.5,19.6z"/>
		<path class="st1" d="M39.7,10.3c-1,3.4-1.9,6.8-2.9,10.1c-0.2,0.8,0.9,2,1.6,2c0.9,0.1,2.2-1.1,2.4-1.9c0.9-3.3,1.8-6.7,2.8-10
			c0.2-0.7-0.9-2-1.6-2C41.1,8.4,39.9,9.6,39.7,10.3z"/>
		<path class="st1" d="M29,19c-1.3,3.6-2.5,7.1-3.8,10.7c-0.1,0.7,0.3,1.1,1,1.1c1.2-0.2,2.3-0.8,3.2-1.8c1.8-1.4,3.5-3,5.2-4.6
			c1.1-0.8,1.8-1.8,2.2-3c1.3-3.3,2.6-6.7,3.9-10c0.1-0.7-0.2-1.1-1-1.2c-1.2,0.2-2.3,0.7-3.2,1.6c-1.8,1.3-3.6,2.8-5.3,4.3
			C30.1,16.9,29.4,17.8,29,19z"/>
		<path class="st1" d="M37.1,31c-1.2,3.5-2.5,7-3.7,10.6c-0.8,2.2,2.3,1.8,3.4,1.6c1.9-0.3,3.7-0.7,5.5-1.3c1.1-0.1,2-0.6,2.7-1.4
			c1.2-3.2,2.4-6.4,3.6-9.7c0.8-2.1-1.9-1.9-3.2-1.9c-1.9,0.2-3.7,0.4-5.5,0.8C38.8,29.9,37.9,30.3,37.1,31z"/>
		<path class="st1" d="M48.9,19.3c-1.4,3.4-2.9,6.7-4.3,10.1c-0.4,1-0.3,2.2,1.1,2.3c1-0.2,1.9-0.5,2.8-0.9c0.9-0.4,1.7-0.9,2.5-1.5
			c1.8-3.8,3.6-7.6,5.4-11.3c0.1-0.6-0.1-1-0.6-1.4c-0.7-0.4-1.3-0.4-2.1,0C52.1,16.8,49.6,17.6,48.9,19.3z"/>
		<path class="st1" d="M32.4,14.1c-1.2,3.5-2.5,7.1-3.7,10.6c0,0.7,0.3,1.1,1.1,1.1c0.8-0.1,1.5-0.5,2.1-1.1
			c1.2-0.9,2.3-1.8,3.3-2.9c1.4-1.3,2.6-2.6,3.8-4.1c1.4-3.8,2.9-7.5,4.3-11.3c0-0.7-0.3-1.1-1-1.1c-1.2,0.2-2.2,0.7-3,1.6
			c-1.7,1.3-3.3,2.8-4.8,4.3C33.4,12,32.7,13,32.4,14.1z"/>
		<path class="st1" d="M40.4,12.5c-1.2,3.5-2.4,7-3.6,10.5c-0.1,0.7,0.2,1.1,0.9,1.2c1.2-0.1,2.2-0.6,3.1-1.4
			c1.8-1.2,3.4-2.5,5.1-3.9c1-0.7,1.8-1.5,2.1-2.7c1.3-3.4,2.6-6.8,3.9-10.2C52,5.3,51.7,4.9,51,4.8c-1.2,0.1-2.2,0.5-3.2,1.3
			c-1.8,1.2-3.5,2.4-5.2,3.8C41.5,10.5,40.8,11.4,40.4,12.5z"/>
		<path class="st1" d="M47.1,25.7c-1.1,3.5-2.3,6.9-3.4,10.4c-0.6,1.8,1.7,1.8,2.6,1.6c1.5-0.3,4.8-0.9,5.4-2.6
			c1.2-3.3,2.4-6.6,3.6-9.9c0.6-1.8-1.5-1.9-2.6-1.7c-1.3,0.2-2.6,0.5-3.9,1C48.1,24.5,47.5,24.9,47.1,25.7z"/>
		<path class="st1" d="M29.9,23.7c-1.3,3.6-2.5,7.2-3.8,10.7c-1.1,3,4.8-0.2,4.7-0.2c2.3-1.3,4.6-2.7,6.8-4.2
			c1.3-0.7,2.4-1.6,3.1-2.8c1.3-3.3,2.6-6.7,4-10c1.2-2.9-4.8,0-4.7,0c-2.4,1.2-4.7,2.4-6.9,3.8C31.8,21.7,30.7,22.6,29.9,23.7z"/>
	</g>
	<path class="st0" d="M51.9,25c-0.5,2.5-1,4.9-1.6,7.4c-0.5,2.3,0.7,5,3.1,5.5c2.3,0.5,5-0.7,5.5-3.1c0.5-2.5,1-4.9,1.6-7.4
		c0.5-2.3-0.7-5-3.1-5.5C55.1,21.4,52.4,22.6,51.9,25L51.9,25z"/>
	<path class="st0" d="M55.5,29.4c-1.4,3.8-2.7,7.7-4.3,11.5c-1.6,3.9-4.4,4.8-8.1,6.3c-5.3,2.2-3,10.9,2.4,8.7
		c4.8-2,9.6-3.5,12.4-8.1c2.9-4.8,4.4-10.7,6.3-15.9C66.3,26.3,57.6,24,55.5,29.4L55.5,29.4z"/>
	<path class="st0" d="M49.8,55.3c5.8,0,5.8-9,0-9S44,55.3,49.8,55.3L49.8,55.3z"/>
	<path class="st0" d="M42,58.6c5.8,0,5.8-9,0-9S36.2,58.6,42,58.6L42,58.6z"/>
	<path class="st0" d="M41.8,60.1c5.8,0,5.8-9,0-9S36,60.1,41.8,60.1L41.8,60.1z"/>
	<path class="st0" d="M38.5,61.5c5.8,0,5.8-9,0-9S32.7,61.5,38.5,61.5L38.5,61.5z"/>
	<path class="st0" d="M35.7,62.7c5.8,0,5.8-9,0-9S29.9,62.7,35.7,62.7L35.7,62.7z"/>
	<path class="st0" d="M36.4,53.5c-1.2-1.1-2.3-2.2-3.5-3.4c-1.7-1.6-4.7-1.8-6.4,0c-1.6,1.8-1.8,4.6,0,6.4c1.2,1.1,2.3,2.2,3.5,3.4
		c1.7,1.6,4.7,1.8,6.4,0S38.2,55.3,36.4,53.5L36.4,53.5z"/>
	<path class="st0" d="M30.5,47.7c-8-3.2-13.7-11.1-14.3-19.7c-0.4-5.7-9.4-5.8-9,0c0.9,13,8.9,23.6,20.9,28.4
		C33.5,58.5,35.9,49.8,30.5,47.7L30.5,47.7z"/>
	<path class="st0" d="M16.6,26.7c0.6-2.9,1.4-5.8,2.6-8.6c1-2.2,0.6-4.8-1.6-6.2c-1.9-1.1-5.2-0.6-6.2,1.6c-1.5,3.5-2.8,7-3.5,10.7
		c-0.5,2.4,0.7,4.9,3.1,5.5C13.2,30.5,16.1,29.1,16.6,26.7L16.6,26.7z"/>
	<path class="st0" d="M17.9,19.2l0.2-0.2c0.4-0.4,0.7-0.9,0.9-1.4c0.3-0.5,0.4-1.1,0.4-1.7s-0.1-1.2-0.4-1.7c-0.2-0.6-0.5-1-0.9-1.4
		c-0.3-0.2-0.6-0.5-0.9-0.7c-0.7-0.4-1.5-0.6-2.3-0.6c-0.4,0.1-0.8,0.1-1.2,0.2c-0.8,0.2-1.4,0.6-2,1.2l-0.2,0.2
		c-0.4,0.4-0.7,0.9-0.9,1.4c-0.3,0.5-0.4,1.1-0.4,1.7s0.1,1.2,0.4,1.7c0.2,0.6,0.5,1,0.9,1.4c0.3,0.2,0.6,0.5,0.9,0.7
		c0.7,0.4,1.5,0.6,2.3,0.6c0.4-0.1,0.8-0.1,1.2-0.2C16.7,20.2,17.3,19.8,17.9,19.2L17.9,19.2z"/>
	<path class="st0" d="M19.2,17.9c0.3-0.4,0.5-0.8,0.8-1.3s0.5-1.1,0.5-1.7c0.1-0.6,0.1-1.2-0.1-1.8c-0.1-0.6-0.4-1.1-0.8-1.5
		c-0.3-0.5-0.7-0.9-1.3-1.2c-1-0.6-2.3-0.8-3.5-0.5c-1.1,0.4-2,1-2.7,2.1c-0.3,0.4-0.5,0.8-0.8,1.3s-0.5,1.1-0.5,1.7
		c-0.1,0.6-0.1,1.2,0.1,1.8c0.1,0.6,0.4,1.1,0.8,1.5c0.3,0.5,0.7,0.9,1.3,1.2c1,0.6,2.3,0.8,3.5,0.5C17.7,19.6,18.6,18.9,19.2,17.9
		L19.2,17.9z"/>
	<path class="st0" d="M20.8,14.8c0.3-0.6,0.5-1.2,0.8-1.7s0.5-1.1,0.5-1.7c0.1-0.6,0.1-1.2-0.1-1.8c-0.3-1-1.1-2.2-2.1-2.7
		c-1-0.6-2.3-0.8-3.5-0.5c-1,0.3-2.2,1-2.7,2.1c-0.3,0.6-0.5,1.2-0.8,1.7s-0.5,1.1-0.5,1.7c-0.1,0.6-0.1,1.2,0.1,1.8
		c0.3,1,1.1,2.2,2.1,2.7c1,0.6,2.3,0.8,3.5,0.5C19.2,16.6,20.3,15.9,20.8,14.8L20.8,14.8z"/>
	<path class="st0" d="M18.2,14.7c5.8,0,5.8-9,0-9S12.4,14.7,18.2,14.7L18.2,14.7z"/>
	<path class="st0" d="M20,14.2c0.7-0.2,1.4-0.3,2.1-0.5c1.1-0.3,2.1-1.1,2.7-2.1s0.8-2.4,0.5-3.5c-0.4-1.1-1-2.1-2.1-2.7
		S21,4.7,19.7,4.9c-0.7,0.2-1.4,0.3-2.1,0.5c-1.1,0.3-2.1,1.1-2.7,2.1c-0.6,1-0.8,2.4-0.5,3.5c0.4,1.1,1,2.1,2.1,2.7
		C17.7,14.3,18.8,14.5,20,14.2L20,14.2z"/>
	<path class="st0" d="M22,13.9h0.6c0.6,0,1.2-0.1,1.7-0.4c0.6-0.2,1-0.5,1.4-0.9s0.7-0.9,0.9-1.4c0.3-0.5,0.4-1.1,0.4-1.7
		c0.1-0.5,0-0.9,0-1.3c-0.2-0.8-0.6-1.4-1.2-2c-0.3-0.2-0.6-0.5-0.9-0.7c-0.7-0.4-1.5-0.6-2.3-0.6H22c-0.6,0-1.2,0.1-1.7,0.4
		c-0.6,0.2-1,0.5-1.4,0.9S18.2,7.1,18,7.6c-0.3,0.5-0.4,1.1-0.4,1.7c0.1,0.4,0.1,0.8,0.2,1.2c0.2,0.8,0.6,1.4,1.2,2
		c0.3,0.2,0.6,0.5,0.9,0.7C20.4,13.7,21.2,13.9,22,13.9L22,13.9z"/>
	<path class="st0" d="M22.6,13.9c5,1.6,10,3.3,15,4.9c5.5,1.8,7.9-6.9,2.4-8.7c-5-1.6-10-3.3-15-4.9C19.5,3.5,17.1,12.1,22.6,13.9
		L22.6,13.9z"/>
	<path class="st0" d="M38.7,19.3C44,21,50,20.2,54.6,17.1c2-1.4,2.9-3.9,1.6-6.2C55,9,52,7.9,50,9.3c-2.8,1.9-5.7,2.4-8.9,1.3
		C35.6,8.8,33.2,17.5,38.7,19.3L38.7,19.3z"/>
	<path class="st0" d="M51.5,8.2h-0.3c-0.6,0-1.2,0.1-1.7,0.4c-0.6,0.2-1,0.5-1.4,0.9s-0.7,0.9-0.9,1.4c-0.3,0.5-0.4,1.1-0.4,1.7
		c0.1,0.4,0.1,0.8,0.2,1.2c0.2,0.8,0.6,1.4,1.2,2c0.3,0.2,0.6,0.5,0.9,0.7c0.7,0.4,1.5,0.6,2.3,0.6h0.3c0.6,0,1.2-0.1,1.7-0.4
		c0.6-0.2,1-0.5,1.4-0.9s0.7-0.9,0.9-1.4c0.3-0.5,0.4-1.1,0.4-1.7c-0.1-0.4-0.1-0.8-0.2-1.2c-0.2-0.8-0.6-1.4-1.2-2
		c-0.3-0.2-0.6-0.5-0.9-0.7C53.1,8.4,52.3,8.2,51.5,8.2L51.5,8.2z"/>
	<path class="st0" d="M48.2,16.4c2.5-0.4,7.1-1.3,8.7,1.3c0.7,1.2,0.3,3.2,0.2,4.5c-0.1,1.9,0,3.7,0.4,5.6c1.2,5.7,9.9,3.3,8.7-2.4
		c-0.5-2.5,0.2-5.1-0.1-7.7c-0.3-2.9-1.5-5.5-3.7-7.4c-4.7-4.1-10.8-3.6-16.6-2.7c-2.4,0.4-3.7,3.4-3.1,5.5
		C43.3,15.8,45.7,16.8,48.2,16.4L48.2,16.4z"/>
	<path class="st0" d="M51.6,16.3c-2.3,8.3-4.2,16.7-6.8,24.8c-1.4,4.5-4.7,4-8.2,5.9c-2.6,1.4-4.3,3.5-5.2,6.3
		c-1.7,5.6,6.7,7.8,8.7,2.4c4-11.1,8-22.2,12-33.3c-2.9-0.8-5.8-1.6-8.7-2.4c-1.6,4.4-3.2,8.8-4.7,13.2c-1.1,3-2.3,10-6.4,9.8
		c1.4,1.9,2.9,3.8,4.3,5.7c1.9-9.5,5-18.6,9.4-27.2c1.5-2.9-0.3-6.9-3.9-6.8c-4.4,0.2-7.9-0.6-11.9-2.2c-2.7-1-5.5-1.8-8.3-0.8
		c-5.4,2.1-7.1,8.8-7.6,14c-0.7,8.1,6,30.2,18.1,22c4.8-3.2,4.1-11.2,4.7-16.2c0.6-5.4,2.2-12.4-3.5-15.7c-5-2.9-10.5,0.9-12.2,5.8
		c-2.3,6.5,0.4,13.1,3,19c2.3,5.1,8.9,1.1,8.2-3.5c-0.5-3.4-1-6.9-1.5-10.3c-0.8-5.7-9.5-3.3-8.7,2.4c0.5,3.4,1,6.9,1.5,10.3
		c2.7-1.2,5.5-2.3,8.2-3.5c-1.2-2.8-2.2-5.5-2.6-8.6c-0.1-0.7,0.1-5.8-0.7-2.5c-0.2,1-0.2,2.1-0.3,3.1c-0.3,2.9-0.7,5.8-1,8.8
		c-0.1,0.9-0.2,1.7-0.3,2.6c-0.1,1-0.1,1.1,0,0.3c-0.8-0.1-1.8-2.5-2.1-3.1c-1.3-2.6-2-5.5-2-8.4c0-1.8,0.3-7.1,2.2-7.7
		c1.6-0.4,5.8,2.1,7.4,2.4c3.1,0.7,6.1,0.9,9.2,0.8c-1.3-2.3-2.6-4.5-3.9-6.8c-4.5,9.3-8,19.1-10.1,29.4c-0.6,3,1.3,5.5,4.3,5.7
		c6,0.4,10-3.7,12.3-8.9c3-6.7,5.1-13.8,7.5-20.7c2-5.5-6.7-7.8-8.7-2.4c-4,11.1-8,22.2-12,33.3c2.9,0.8,5.8,1.6,8.7,2.4
		c0.5-1.7,7.3-2.9,9-4.4c2.4-2.1,3.5-4.9,4.4-7.8c2.5-8.2,4.5-16.6,6.8-24.8C61.8,13.1,53.2,10.7,51.6,16.3L51.6,16.3z"/>
	<rect x="19.2" y="19.1" class="st0" width="5.1" height="7"/>
	<g>
		<g class="st2">
			<path class="st3" d="M22,39.8l9.2-12.2c0.5-0.7,0.9-1.4,1.2-2.2c0.3-0.8,0.4-1.5,0.4-2.1l0,0c0-1-0.3-1.9-0.9-2.4
				S30.4,20,29.3,20s-1.9,0.3-2.6,0.9s-1.1,1.5-1.2,2.7l0,0h-3.8l0,0c0.2-1.5,0.7-2.8,1.3-3.9c0.7-1.1,1.5-1.9,2.6-2.4
				c1.1-0.6,2.3-0.8,3.7-0.8c1.6,0,2.9,0.3,4,0.8s2,1.3,2.5,2.3c0.6,1,0.9,2.3,0.9,3.7l0,0c0,0.9-0.2,1.9-0.6,2.9
				c-0.4,1-0.9,2-1.6,2.9l-7.6,10.3h9.9V43H22V39.8z"/>
		</g>
	</g>
	<g>
		<g class="st2">
			<path class="st3" d="M43.2,42.3c-1.1-0.6-1.9-1.5-2.5-2.7s-0.9-2.6-0.9-4.3l0,0c0-1,0.1-2,0.3-3.1c0.2-1.1,0.6-2.1,1-3.2
				c0.1-0.2,0.2-0.4,0.2-0.5c0.1-0.2,0.2-0.3,0.3-0.5l5.7-11.3h4l-6.7,13.1v-0.7c0.3-0.6,0.7-1,1.3-1.3s1.3-0.5,2-0.5
				c1.4,0,2.5,0.3,3.5,0.9s1.7,1.5,2.2,2.7s0.8,2.6,0.8,4.2l0,0c0,1.7-0.3,3.1-0.9,4.3c-0.6,1.2-1.4,2.1-2.5,2.7
				c-1.1,0.6-2.4,0.9-4,0.9C45.7,43.2,44.3,42.9,43.2,42.3z M49.9,38.6c0.6-0.7,0.9-1.8,0.9-3.1l0,0c0-1.5-0.3-2.6-1-3.4
				c-0.7-0.8-1.6-1.2-2.8-1.2c-1.1,0-1.9,0.4-2.5,1.2c-0.6,0.8-0.9,1.9-0.9,3.4l0,0c0,1.3,0.3,2.4,0.9,3.1c0.6,0.7,1.5,1.1,2.7,1.1
				C48.4,39.7,49.3,39.3,49.9,38.6z"/>
		</g>
	</g>
</g>
</svg>
