<?xml version="1.0" standalone="no"?>
<!DOCTYPE svg PUBLIC "-//W3C//DTD SVG 20010904//EN"
 "http://www.w3.org/TR/2001/REC-SVG-20010904/DTD/svg10.dtd">
<svg version="1.0" xmlns="http://www.w3.org/2000/svg"
 width="97.000000pt" height="97.000000pt" viewBox="0 0 97.000000 97.000000"
 preserveAspectRatio="xMidYMid meet">

<g transform="translate(0.000000,97.000000) scale(0.100000,-0.100000)"
fill="#000000" stroke="none">
<path d="M210 889 c-14 -6 -36 -20 -48 -32 -83 -77 -68 -185 53 -391 107 -184
385 -400 491 -383 73 12 144 97 144 174 0 32 -7 44 -56 89 -108 101 -167 115
-225 52 l-29 -30 -43 26 c-47 27 -86 71 -113 130 l-18 36 31 33 c48 50 51 77
13 153 -43 87 -107 154 -146 153 -16 0 -40 -5 -54 -10z m91 -101 c17 -24 39
-60 50 -80 19 -38 19 -38 -2 -55 -27 -23 -49 -66 -49 -95 0 -33 42 -118 79
-160 47 -53 121 -98 163 -98 28 0 42 7 61 30 14 16 34 30 44 30 27 0 133 -88
133 -110 0 -23 -54 -87 -80 -95 -42 -13 -221 105 -319 212 -99 108 -200 294
-201 371 0 25 8 42 31 63 17 16 37 29 45 29 8 0 28 -19 45 -42z"/>
</g>
</svg>
