<?xml version="1.0" encoding="UTF-8"?>
<svg id="_Слой_2" data-name="Слой 2" xmlns="http://www.w3.org/2000/svg" viewBox="0 0 52.66 44.45">
  <defs>
    <style>
      .cls-1 {
        fill: none;
        stroke: #54592e;
        stroke-miterlimit: 10;
      }
    </style>
  </defs>
  <g id="_Слой_1-2" data-name="Слой 1">
    <g>
      <path class="cls-1" d="M28.84,33.63c-2.32,3.6-6.36,5.98-10.95,5.98-7.2,0-13.04-5.84-13.04-13.04s5.84-13.04,13.04-13.04c.16,0,.33,0,.49,.01-.32,1.31-.49,2.68-.49,4.09,0,7.29,4.54,13.51,10.95,15.99Z"/>
      <path class="cls-1" d="M30.92,26.57c0,1.19-.16,2.34-.46,3.43-4.82-1.91-8.23-6.62-8.23-12.12,0-1.19,.16-2.34,.46-3.43,4.82,1.91,8.23,6.62,8.23,12.12Z"/>
      <path class="cls-1" d="M28.84,33.63c-2.32,3.6-6.36,5.98-10.95,5.98-7.2,0-13.04-5.84-13.04-13.04s5.84-13.04,13.04-13.04c.16,0,.33,0,.49,.01-.32,1.31-.49,2.68-.49,4.09,0,7.29,4.54,13.51,10.95,15.99Z"/>
      <path class="cls-1" d="M30.92,26.57c0,1.19-.16,2.34-.46,3.43-4.82-1.91-8.23-6.62-8.23-12.12,0-1.19,.16-2.34,.46-3.43,4.82,1.91,8.23,6.62,8.23,12.12Z"/>
      <path class="cls-1" d="M52.16,17.64c0,9.47-7.67,17.14-17.14,17.14-.6,0-1.19-.03-1.77-.09,.63-1.19,1.12-2.46,1.47-3.79,.18,0,.36,.01,.54,.01,7.2,0,13.04-5.84,13.04-13.04s-5.84-13.04-13.04-13.04c-4.46,0-8.4,2.24-10.75,5.66-.82,1.19-1.44,2.52-1.83,3.95-.3,1.09-.46,2.24-.46,3.43,0,5.5,3.41,10.21,8.23,12.12-.35,1.3-.9,2.53-1.62,3.63-6.41-2.48-10.95-8.71-10.95-15.99,0-1.41,.17-2.78,.49-4.09,.36-1.5,.93-2.91,1.66-4.22C22.96,4.06,28.57,.5,35.02,.5c9.47,0,17.14,7.67,17.14,17.14Z"/>
      <path class="cls-1" d="M30.92,26.57c0,1.19-.16,2.34-.46,3.43-4.82-1.91-8.23-6.62-8.23-12.12,0-1.19,.16-2.34,.46-3.43,4.82,1.91,8.23,6.62,8.23,12.12Z"/>
      <path class="cls-1" d="M48.3,17.88c0,7.2-5.84,13.04-13.04,13.04-.18,0-.36,0-.54-.01,.35-1.39,.54-2.83,.54-4.33,0-7.25-4.44-13.46-10.75-16.07,2.35-3.42,6.29-5.66,10.75-5.66,7.2,0,13.04,5.84,13.04,13.04Z"/>
      <path class="cls-1" d="M35.26,26.57c0,1.5-.19,2.95-.54,4.33-.34,1.33-.84,2.6-1.47,3.79-2.92,5.51-8.71,9.26-15.37,9.26C8.28,43.95,.5,36.17,.5,26.57S8.28,9.19,17.88,9.19c.73,0,1.44,.04,2.15,.14-.73,1.31-1.29,2.73-1.66,4.22-.16,0-.33-.01-.49-.01-7.2,0-13.04,5.84-13.04,13.04s5.84,13.04,13.04,13.04c4.6,0,8.64-2.38,10.95-5.98,.72-1.11,1.27-2.33,1.62-3.63,.3-1.09,.46-2.24,.46-3.43,0-5.5-3.41-10.21-8.23-12.12,.39-1.43,1.01-2.76,1.83-3.95,6.31,2.61,10.75,8.82,10.75,16.07Z"/>
      <path class="cls-1" d="M30.92,26.57c0,1.19-.16,2.34-.46,3.43-4.82-1.91-8.23-6.62-8.23-12.12,0-1.19,.16-2.34,.46-3.43,4.82,1.91,8.23,6.62,8.23,12.12Z"/>
      <path class="cls-1" d="M48.3,17.88c0,7.2-5.84,13.04-13.04,13.04-.18,0-.36,0-.54-.01,.35-1.39,.54-2.83,.54-4.33,0-7.25-4.44-13.46-10.75-16.07,2.35-3.42,6.29-5.66,10.75-5.66,7.2,0,13.04,5.84,13.04,13.04Z"/>
    </g>
  </g>
</svg>