<?xml version="1.0" standalone="no"?>
<!DOCTYPE svg PUBLIC "-//W3C//DTD SVG 20010904//EN"
 "http://www.w3.org/TR/2001/REC-SVG-20010904/DTD/svg10.dtd">
<svg version="1.0" xmlns="http://www.w3.org/2000/svg"
 width="108.000000pt" height="108.000000pt" viewBox="0 0 108.000000 108.000000"
 preserveAspectRatio="xMidYMid meet">

<g transform="translate(0.000000,108.000000) scale(0.100000,-0.100000)"
fill="#000000" stroke="none">
<path d="M525 767 c-305 -122 -431 -177 -433 -189 -2 -12 29 -32 121 -79 l124
-63 84 49 c46 26 95 55 109 63 14 8 -5 -14 -42 -50 l-68 -64 0 -131 c0 -72 3
-138 6 -147 11 -29 32 -17 80 47 26 34 50 66 54 70 4 4 62 -24 130 -63 68 -39
129 -69 136 -66 16 6 8 -30 94 411 39 198 68 365 66 372 -3 7 -11 13 -18 12
-7 0 -206 -77 -443 -172z m405 101 c0 -16 -130 -651 -133 -655 -3 -2 -56 25
-119 61 -62 36 -119 66 -125 66 -6 0 -21 -15 -32 -34 -44 -70 -51 -67 -51 25
l0 84 160 144 c88 79 160 150 160 158 0 7 -6 16 -14 19 -11 4 -345 -180 -420
-232 -16 -11 -29 -7 -99 28 -68 35 -78 43 -62 50 49 21 721 287 728 288 4 0 7
-1 7 -2z"/>
</g>
</svg>
